<svg xmlns="http://www.w3.org/2000/svg" viewBox="0 0 1200 750" role="img" aria-labelledby="t">
<title id="t">Locator map: South Korea</title>
<defs><pattern id="hatch-c" width="9" height="9" patternUnits="userSpaceOnUse" patternTransform="rotate(45)"><rect width="9" height="9" fill="#f1ede4"/><rect width="4" height="9" fill="#3a5f8f"/></pattern><pattern id="hatch-n" width="9" height="9" patternUnits="userSpaceOnUse" patternTransform="rotate(45)"><rect width="9" height="9" fill="#f1ede4"/><rect width="3" height="9" fill="#b9b3a6"/></pattern></defs>
<rect width="1200" height="750" fill="#dbe7f0"/>
<path d="M810,750L803,399L794,0" fill="none" stroke="#c9d9e6" stroke-width="1"/>
<path d="M569,0L570,9L570,21L568,31L562,28L558,31L555,40L556,51L565,54L573,58L584,61L592,66L609,88L623,97L627,101L635,106L642,113L646,120L669,173L691,207L710,232L738,279L746,304L747,320L752,342L748,354L750,374L748,384L745,392L745,406L746,414L747,424L749,428L752,429L757,425L763,424L762,436L755,467L749,489L741,509L730,527L717,534L707,537L689,538L674,535L662,537L657,541L653,548L656,557L655,565L650,564L639,560L627,560L621,557L616,547L610,547L600,554L584,555L579,558L577,563L579,568L587,575L585,583L576,586L570,577L566,568L561,568L554,570L553,580L556,587L561,594L554,603L552,609L546,613L531,603L534,596L540,590L541,583L539,578L517,596L504,616L498,614L494,609L491,607L476,620L473,630L468,630L466,626L466,616L464,609L450,597L443,587L447,582L459,585L468,585L466,580L463,577L470,575L475,570L471,568L464,571L458,570L456,557L450,543L446,530L453,523L457,511L463,495L467,489L475,485L478,481L474,479L466,477L466,472L472,470L477,464L488,458L492,446L489,443L482,440L484,433L487,429L486,426L478,418L472,410L474,402L473,390L474,379L473,374L470,361L468,348L463,350L459,353L444,348L439,348L437,338L443,326L456,316L463,315L468,311L477,309L487,317L497,318L502,330L505,333L505,328L513,323L515,319L513,317L505,315L497,300L496,293L493,289L498,277L489,263L485,259L486,247L481,238L478,234L477,227L478,223L482,222L484,219L483,218L478,217L459,207L444,213L439,221L435,223L429,208L419,207L403,193L396,196L394,201L385,213L372,223L368,224L364,224L365,221L360,209L341,204L334,199L330,198L350,186L355,184L351,181L347,179L331,181L323,176L311,177L303,174L321,162L322,155L321,149L331,133L340,124L362,112L372,110L379,111L385,110L379,105L373,103L362,103L350,95L349,87L374,38L374,34L371,22L370,10L353,3L346,2L344,0L569,0ZM125,0L92,17L82,28L71,41L64,48L58,52L52,54L46,58L41,59L36,56L29,56L25,62L28,70L26,73L13,76L0,77L0,56L0,56L30,44L27,30L30,25L40,16L45,12L42,10L17,12L3,10L0,10L0,0ZM0,230L2,232L14,239L30,240L44,243L49,237L53,233L58,234L63,242L79,250L93,250L104,248L110,251L100,261L101,277L94,282L87,290L90,296L93,298L93,305L87,308L75,317L69,317L66,315L64,311L63,305L59,301L49,299L37,300L12,313L0,318L0,230ZM684,573L675,581L663,571L660,565L669,557L677,548L682,548ZM619,573L617,584L610,585L607,577L602,581L600,581L596,572L596,564L604,559L609,562L616,564ZM439,623L433,625L429,621L427,619L429,614L439,604L441,600L451,602L454,608L449,617ZM473,224L472,240L467,239L464,238L462,235L459,220L463,214L470,219ZM490,627L492,632L484,631L480,626L480,621L485,621ZM593,595L592,599L587,593L592,587ZM461,372L459,379L453,374L452,357L458,362ZM434,580L433,583L428,582L424,574L423,567L418,564L425,558L434,568ZM886,251L882,255L877,251L876,248L878,245L884,242L888,245ZM431,750L430,748L434,742L448,731L483,721L490,721L503,725L507,734L504,741L501,746L492,750L431,750ZM331,0L328,8L328,8L323,11L323,5L327,0L331,0ZM1125,392L1121,397L1113,396L1108,389L1109,382L1117,376L1126,387ZM738,653L731,657L729,650L731,629L743,633L743,640ZM748,625L746,631L739,627L736,623L742,605L741,598L742,595L754,586L756,587L757,590L756,594L756,603L747,618ZM756,750L757,746L765,743L768,742L763,750L756,750ZM789,696L782,701L777,697L780,687L781,683L787,687ZM1061,643L1059,648L1050,647L1053,643L1056,638L1058,637L1059,642ZM1032,665L1037,669L1048,667L1049,668L1046,672L1041,676L1032,674L1026,674L1026,667L1026,665ZM771,750L772,744L777,742L781,742L795,747L796,740L794,737L793,733L802,727L817,722L820,720L823,716L826,713L837,713L846,708L853,696L854,690L857,684L875,674L879,673L891,674L903,679L909,690L914,702L926,710L926,710L939,713L945,713L950,711L958,706L966,702L972,704L977,708L980,714L979,720L970,733L963,747L981,749L999,748L998,750L771,750ZM1200,714L1191,710L1174,708L1169,709L1136,729L1132,742L1129,750L1059,750L1059,750L1060,746L1059,741L1053,740L1048,737L1049,725L1045,725L1036,727L1017,737L1012,738L1020,731L1036,721L1044,716L1060,701L1070,694L1075,681L1076,674L1080,667L1082,657L1088,653L1097,644L1102,644L1109,655L1117,663L1123,662L1133,657L1138,656L1150,656L1160,650L1165,643L1166,636L1161,623L1166,624L1171,623L1182,614L1194,608L1200,607L1200,714ZM1200,582L1195,587L1186,591L1167,594L1157,597L1147,601L1144,601L1134,607L1122,613L1115,618L1103,616L1080,626L1068,627L1056,623L1045,616L1034,620L1027,632L1025,655L1021,665L1020,678L1015,676L982,655L980,654L954,659L947,661L939,666L930,669L922,666L914,661L907,662L899,666L895,632L896,628L901,622L906,617L919,614L931,616L940,613L948,606L955,596L964,588L976,582L988,574L998,564L1007,553L1016,544L1025,537L1040,521L1059,502L1066,488L1070,484L1087,476L1109,469L1120,469L1131,480L1137,478L1142,475L1154,473L1165,474L1177,473L1189,471L1200,468L1200,582Z" fill="#f1ede4"/>
<path d="M484,219L487,217L487,214L487,203L495,196L507,181L513,173L519,165L527,160L534,158L546,157L568,158L572,157L588,156L592,158L603,158L615,157L621,155L627,151L632,145L637,132L643,122L646,120L669,173L691,207L710,232L738,279L746,304L747,320L752,342L748,354L750,374L748,384L745,392L745,406L746,414L747,424L749,428L752,429L757,425L763,424L762,436L755,467L749,489L741,509L730,527L717,534L707,537L689,538L674,535L662,537L657,541L653,548L656,557L655,565L650,564L639,560L627,560L621,557L616,547L610,547L600,554L584,555L579,558L577,563L579,568L587,575L585,583L576,586L570,577L566,568L561,568L554,570L553,580L556,587L561,594L554,603L552,609L546,613L531,603L534,596L540,590L541,583L539,578L517,596L504,616L498,614L494,609L491,607L476,620L473,630L468,630L466,626L466,616L464,609L450,597L443,587L447,582L459,585L468,585L466,580L463,577L470,575L475,570L471,568L464,571L458,570L456,557L450,543L446,530L453,523L457,511L463,495L467,489L475,485L478,481L474,479L466,477L466,472L472,470L477,464L488,458L492,446L489,443L482,440L484,433L487,429L486,426L478,418L472,410L474,402L473,390L474,379L473,374L470,361L468,348L463,350L459,353L444,348L439,348L437,338L443,326L456,316L463,315L468,311L477,309L487,317L497,318L502,330L505,333L505,328L513,323L515,319L513,317L505,315L497,300L496,293L493,289L498,277L489,263L485,259L486,247L481,238L478,234L477,227L478,223L482,222ZM684,573L675,581L663,571L660,565L669,557L677,548L682,548ZM619,573L617,584L610,585L607,577L602,581L600,581L596,572L596,564L604,559L609,562L616,564ZM439,623L433,625L429,621L427,619L429,614L439,604L441,600L451,602L454,608L449,617ZM473,224L472,240L467,239L464,238L462,235L459,220L463,214L470,219ZM490,627L492,632L484,631L480,626L480,621L485,621ZM593,595L592,599L587,593L592,587ZM461,372L459,379L453,374L452,357L458,362ZM434,580L433,583L428,582L424,574L423,567L418,564L425,558L434,568ZM886,251L882,255L877,251L876,248L878,245L884,242L888,245ZM431,750L430,748L434,742L448,731L483,721L490,721L503,725L507,734L504,741L501,746L492,750L431,750Z" fill="#3a5f8f"/>
<path d="M484,219L487,217L487,214L487,203L495,196L507,181L513,173L519,165L527,160L534,158L546,157L568,158L572,157L588,156L592,158L603,158L615,157L621,155L627,151L632,145L637,132L643,122L646,120" fill="none" stroke="#ffffff" stroke-width="1.6" stroke-linejoin="round"/>
<path d="M484,219L487,217L487,214L487,203L495,196L507,181L513,173L519,165L527,160L534,158L546,157L568,158L572,157L588,156L592,158L603,158L615,157L621,155L627,151L632,145L637,132L643,122L646,120L669,173L691,207L710,232L738,279L746,304L747,320L752,342L748,354L750,374L748,384L745,392L745,406L746,414L747,424L749,428L752,429L757,425L763,424L762,436L755,467L749,489L741,509L730,527L717,534L707,537L689,538L674,535L662,537L657,541L653,548L656,557L655,565L650,564L639,560L627,560L621,557L616,547L610,547L600,554L584,555L579,558L577,563L579,568L587,575L585,583L576,586L570,577L566,568L561,568L554,570L553,580L556,587L561,594L554,603L552,609L546,613L531,603L534,596L540,590L541,583L539,578L517,596L504,616L498,614L494,609L491,607L476,620L473,630L468,630L466,626L466,616L464,609L450,597L443,587L447,582L459,585L468,585L466,580L463,577L470,575L475,570L471,568L464,571L458,570L456,557L450,543L446,530L453,523L457,511L463,495L467,489L475,485L478,481L474,479L466,477L466,472L472,470L477,464L488,458L492,446L489,443L482,440L484,433L487,429L486,426L478,418L472,410L474,402L473,390L474,379L473,374L470,361L468,348L463,350L459,353L444,348L439,348L437,338L443,326L456,316L463,315L468,311L477,309L487,317L497,318L502,330L505,333L505,328L513,323L515,319L513,317L505,315L497,300L496,293L493,289L498,277L489,263L485,259L486,247L481,238L478,234L477,227L478,223L482,222ZM684,573L675,581L663,571L660,565L669,557L677,548L682,548ZM619,573L617,584L610,585L607,577L602,581L600,581L596,572L596,564L604,559L609,562L616,564ZM439,623L433,625L429,621L427,619L429,614L439,604L441,600L451,602L454,608L449,617ZM473,224L472,240L467,239L464,238L462,235L459,220L463,214L470,219ZM490,627L492,632L484,631L480,626L480,621L485,621ZM593,595L592,599L587,593L592,587ZM461,372L459,379L453,374L452,357L458,362ZM434,580L433,583L428,582L424,574L423,567L418,564L425,558L434,568ZM886,251L882,255L877,251L876,248L878,245L884,242L888,245ZM431,750L430,748L434,742L448,731L483,721L490,721L503,725L507,734L504,741L501,746L492,750L431,750Z" fill="none" stroke="#294364" stroke-width="1.6" stroke-linejoin="round"/>
<circle cx="1096" cy="104" r="88" fill="#ffffff" opacity="0.9"/>
<path d="M1096,186L1093.1,186L1090.3,185.8L1087.4,185.6L1084.6,185.2L1081.8,184.8L1079,184.2L1076.2,183.6L1073.4,182.8L1070.7,182L1068,181.1L1065.3,180L1062.6,178.9L1060.1,177.7L1057.5,176.4L1055,175L1052.5,173.5L1050.1,172L1047.8,170.3L1045.5,168.6L1043.3,166.8L1041.1,164.9L1039,163L1037,161L1035.1,158.9L1033.2,156.7L1031.4,154.5L1029.7,152.2L1028,149.9L1026.5,147.5L1025,145L1023.6,142.5L1022.3,139.9L1021.1,137.4L1020,134.7L1018.9,132L1018,129.3L1017.2,126.6L1016.4,123.8L1015.8,121L1015.2,118.2L1014.8,115.4L1014.4,112.6L1014.2,109.7L1014,106.9L1014,104L1014,101.1L1014.2,98.3L1014.4,95.4L1014.8,92.6L1015.2,89.8L1015.8,87L1016.4,84.2L1017.2,81.4L1018,78.7L1018.9,76L1020,73.3L1021.1,70.6L1022.3,68.1L1023.6,65.5L1025,63L1026.5,60.5L1028,58.1L1029.7,55.8L1031.4,53.5L1033.2,51.3L1035.1,49.1L1037,47L1039,45L1041.1,43.1L1043.3,41.2L1045.5,39.4L1047.8,37.7L1050.1,36L1052.5,34.5L1055,33L1057.5,31.6L1060.1,30.3L1062.6,29.1L1065.3,28L1068,26.9L1070.7,26L1073.4,25.2L1076.2,24.4L1079,23.8L1081.8,23.2L1084.6,22.8L1087.4,22.4L1090.3,22.2L1093.1,22L1096,22L1098.9,22L1101.7,22.2L1104.6,22.4L1107.4,22.8L1110.2,23.2L1113,23.8L1115.8,24.4L1118.6,25.2L1121.3,26L1124,26.9L1126.7,28L1129.4,29.1L1131.9,30.3L1134.5,31.6L1137,33L1139.5,34.5L1141.9,36L1144.2,37.7L1146.5,39.4L1148.7,41.2L1150.9,43.1L1153,45L1155,47L1156.9,49.1L1158.8,51.3L1160.6,53.5L1162.3,55.8L1164,58.1L1165.5,60.5L1167,63L1168.4,65.5L1169.7,68.1L1170.9,70.6L1172,73.3L1173.1,76L1174,78.7L1174.8,81.4L1175.6,84.2L1176.2,87L1176.8,89.8L1177.2,92.6L1177.6,95.4L1177.8,98.3L1178,101.1L1178,104L1178,106.9L1177.8,109.7L1177.6,112.6L1177.2,115.4L1176.8,118.2L1176.2,121L1175.6,123.8L1174.8,126.6L1174,129.3L1173.1,132L1172,134.7L1170.9,137.4L1169.7,139.9L1168.4,142.5L1167,145L1165.5,147.5L1164,149.9L1162.3,152.2L1160.6,154.5L1158.8,156.7L1156.9,158.9L1155,161L1153,163L1150.9,164.9L1148.7,166.8L1146.5,168.6L1144.2,170.3L1141.9,172L1139.5,173.5L1137,175L1134.5,176.4L1131.9,177.7L1129.4,178.9L1126.7,180L1124,181.1L1121.3,182L1118.6,182.8L1115.8,183.6L1113,184.2L1110.2,184.8L1107.4,185.2L1104.6,185.6L1101.7,185.8L1098.9,186L1096,186Z" fill="#dbe7f0"/>
<path d="M1156.1,153.5L1156.4,153.2L1156.6,153.3L1156.3,153.9L1155.7,154.4L1155.3,154.6L1155.3,154.3L1155.8,153.7ZM1158.2,151L1158.4,150.8L1158.1,151.4L1158,151.5L1157.4,152.1L1156.8,152.7L1156.8,152.4L1157.3,151.9L1157.6,151.7ZM1032.9,70.4L1032.3,71.4L1032.3,72.2L1032.1,73.2L1032.3,74.3L1033,75L1033.2,74.9L1033.8,74L1034.7,73L1034.8,72.1L1035.4,71.6L1035.3,71.1L1036.1,70.4L1036.2,71.2L1036.7,71.4L1037.1,70.4L1037.5,69.6L1037,69.4L1036.3,70.1L1036.8,69.2L1037,69L1037.5,68.7L1037.8,68.2L1037.8,67.2L1038.6,66L1038.7,65.5L1039,65.1L1039.1,65.8L1039.8,65.1L1040.2,65.5L1040.3,66.1L1041.3,65.3L1041.9,64.6L1041.6,64.1L1041.6,63.4L1040.9,63.1L1040.5,62.8L1039.8,63.1L1039.5,62.6L1038.3,63L1037.5,64.4L1036.9,65L1035.9,66.8L1035.6,67.6L1035,68.6L1035.1,69L1034.9,69.4L1034.6,69L1033.9,69.7L1033.6,69.9L1033.3,69.9ZM1041.3,42.9L1041,43.2L1040.6,43.6L1040.3,43.8L1039.7,44.5L1039.3,44.8L1038.9,45.2L1038.6,45.6L1038.2,46.1L1037.8,46.4L1037.6,46.7L1037.5,46.9L1037.3,46.9L1037,47.2L1036.6,47.6L1036.1,48.1L1036.1,48.1L1035.6,48.6L1035.3,48.9L1034.8,49.5L1034.5,49.8L1033.6,50.8L1033.5,51L1032.9,51.7L1032,52.9L1031.2,54L1030.6,54.7L1029.7,56L1028.9,57.2L1028.9,57.3L1029.1,57.3L1029.7,56.5L1029.9,56.3L1030,56.4L1029.9,56.7L1029.3,57.8L1028.9,58.4L1028.7,58.7L1028.5,59.1L1028.2,59.9L1027.8,60.3L1027.5,61.3L1027.1,62.2L1026.7,63.2L1026.5,63.6L1026.6,63.9L1026.7,63.9L1026.6,64.5L1026.4,65.1L1026,65.8L1026.2,65.7L1026,66.5L1025.9,67.1L1026,67.2L1026.2,67.1L1026.3,67L1026.6,66.7L1027.2,66.2L1027.4,66L1027.4,66L1028,65.5L1028.5,65.2L1028.6,65.2L1029.2,64.4L1029.5,64.2L1029.9,63.5L1030.2,63.5L1030.2,63.1L1030.4,62.3L1030,62.4L1030,61.5L1030.6,60.4L1030.8,59.7L1030.4,59.9L1030.5,59.5L1031.1,58.4L1031.3,57.7L1032.2,56.5L1032.9,55.5L1033.4,55.2L1034,54.5L1034.6,54.4L1034.4,55.4L1035,55L1034.6,56.4L1035.1,56.6L1035.3,57.1L1035.2,58.1L1034.4,59.8L1034.1,61.1L1034.2,61.7L1034.2,62.3L1034.7,62.6L1035.2,62.3L1035.8,61.6L1036.1,60.9L1036.2,60.4L1036.5,59.9L1037.3,58.4L1037.7,57.4L1038.3,56.4L1038.4,56.8L1039.3,56.6L1039.7,55.9L1040.1,56.5L1040.4,56.3L1040.2,55.9L1040.1,55.5L1039.8,55.4L1039.7,54.8L1039.4,54.6L1038.8,55.1L1038.8,55.1L1038.5,55.6L1038.5,56.2L1038.2,56.3L1038,55.8L1037.5,55.5L1037.8,55L1038.2,54.7L1038.6,53.9L1038.8,53.8L1039,54.1L1039.2,54L1039.3,53.8L1039.7,52.7L1040.1,52.4L1040.1,51.9L1039.6,52.1L1038.9,52.2L1038.7,52.4L1038.5,52.3L1038.7,52L1037.5,52.7L1037.2,52.7L1036.6,53L1036,53.7L1035.6,54L1035.1,54.8L1034.9,54.9L1035.1,54.2L1034.9,54.2L1034.6,54L1035.1,53.5L1035.3,53.3L1035.4,52.9L1035.6,52.5L1035.7,52L1035,52.8L1035,52.6L1035.2,52.3L1035.8,51.6L1035.6,51.6L1035,52.2L1034.5,52.9L1034.4,52.8L1033.8,53.5L1033.4,54L1033,54.5L1033.4,53.7L1032.9,54.3L1033,53.9L1032.2,54.9L1032.4,54.5L1033,53.6L1033.8,52.7L1034.4,52.1L1034.9,51.5L1035.6,50.8L1035.8,50.5L1036,50.4L1036.2,50.2L1036.6,49.6L1037.1,49.2L1037.7,48.8L1037.9,48.7L1038.1,48.5L1038.2,48.3L1038.6,47.9L1039,47.5L1039.6,46.7L1040.2,46.2L1040.8,45.4L1041.8,44.5L1041.8,44.6L1042.4,44.1L1042.7,43.9L1043.1,43.4L1042.8,43.5L1043.2,43.2L1043.6,43L1043.6,43L1043.6,43.1L1044,42.5L1044,42.3L1043.6,42.6L1043.4,42.7L1042.7,43.2L1041.9,44L1040.9,44.8L1039.8,45.9L1039.4,46.4L1039.2,46.6L1039.1,46.6L1038.4,47.4L1037.9,48L1037.1,48.9L1036.9,49.1L1036.7,49.2L1037.3,48.6L1037.7,47.9L1037.3,48.1L1036.7,48.8L1036.4,49.1L1036.5,48.9L1036,49.2L1036.1,49L1036.3,48.7L1036.7,48.5L1036.8,48.5L1037.4,47.8L1038,47.3L1038.3,47L1038.8,46.5L1039.2,46L1039.7,45.5L1040.1,45L1040.9,44.3L1041.9,43.4L1042.7,42.7L1043.7,42L1044,41.6L1044.7,41L1044.8,40.8L1044.7,40.8L1044.9,40.6L1044.9,40.4L1046.2,39.2L1046.8,38.7L1046.4,38.9L1045.9,39.2L1046,39.1L1046.6,38.6L1046.4,38.7L1046.4,38.7L1046.3,38.8L1046.3,38.8L1048.6,37.1L1051,35.5L1053.4,33.9L1053.7,33.7L1053.7,33.7L1052.8,34.3L1051.9,34.9L1051.3,35.3L1050.2,36L1050.3,36L1051.8,35.2L1053.3,34.3L1054.1,33.8L1055.4,33L1056.1,32.7L1055.4,33.2L1054.2,34L1055.3,33.5L1054.4,34L1053.8,34.8L1054.3,34.6L1054,34.9L1053.8,35.2L1053.8,35.4L1054.8,35.3L1054.6,35.7L1054.2,36.1L1054.3,36.1L1054,36.4L1053.7,36.6L1053.9,36.7L1054.4,36.5L1055,36.3L1055.7,35.9L1056.8,35.6L1057,35.6L1057.2,35.7L1056.9,36L1057.1,36.1L1057.1,36.3L1056.6,36.4L1056.3,36.4L1056,36.5L1055.6,36.8L1055.3,36.8L1055.5,36.7L1055,36.6L1054.4,36.9L1054,37L1053.4,37.5L1053,37.7L1052.9,38.1L1052.9,38.2L1052.1,38.9L1051.6,39.2L1051.7,39.4L1051.7,39.9L1051.7,40.4L1051.2,40.9L1051,41L1050.7,41.5L1051.1,41.4L1051.1,41.9L1052.1,41.4L1053,41.1L1053.6,41.1L1053.8,41.3L1052.8,42L1052.6,42.4L1053.5,42.1L1054.2,41.9L1054.1,41.8L1054.6,41.4L1055.3,41.1L1055.5,41.5L1055.4,42L1055.1,42.5L1055,42.9L1055.5,43.2L1056.2,42.5L1056.4,41.8L1056.2,41.2L1056.2,40.6L1057,40.2L1057.6,39.7L1058.7,39.4L1059.9,39L1060.5,39L1061.1,39.1L1062.1,39.6L1062.3,39.7L1062.9,39.6L1063.6,39L1063.5,38.5L1062.8,38.3L1062,38.5L1061.4,38.2L1060.7,37.7L1059.2,37.8L1058.2,38.3L1057.3,38.9L1056.3,38.9L1056.3,38.5L1054.5,39L1053.6,39.1L1054.1,38.5L1053.4,38.6L1053.7,38.1L1054.9,37.6L1056.4,36.9L1058.2,36.2L1059.1,35.8L1058.5,35.3L1058.8,34.8L1059.8,34.2L1061.1,33.8L1063.6,33.4L1064,33.6L1064,34.3L1064.6,34.8L1065.8,35.2L1067.5,35.7L1068.1,36.1L1069.2,36.7L1069.4,37.2L1069.2,37.7L1070.1,38L1069.8,38.5L1069.9,38.9L1068.7,40L1068.5,39.7L1067.6,40.2L1068,40.4L1067.1,41.1L1066.7,42L1065.2,43.6L1064.6,44.1L1063.7,44.5L1063,44.4L1062.6,43.9L1063.7,42.1L1063.6,41.9L1062.6,42.7L1062,43L1060.6,43.4L1060.2,44.1L1059.9,44.5L1060.5,44.3L1061,43.9L1061.5,43.9L1060.7,45.1L1061.1,45.3L1062,44.7L1063.4,45L1063.3,45.3L1062.9,45.8L1063.9,45.6L1064.6,45L1065.4,44.9L1066.2,44.3L1065.9,45.4L1065.2,45.9L1065,45.5L1064.3,45.8L1063.9,46.3L1064.3,46.7L1065.2,46.4L1066,46.8L1067.5,47.3L1067.6,47.5L1066.7,47.6L1066.7,48.1L1067.3,48.1L1067.6,48.6L1068.4,48.7L1067.9,49.5L1068.9,49.3L1069.4,48.6L1069.9,48.6L1070.2,49.6L1070.1,50.2L1069.7,52.1L1070.5,51.8L1070.8,51.1L1071,50.9L1070.8,50.5L1071.5,50.3L1072.3,49.5L1072.6,49.3L1074.1,49L1075.3,48.4L1075.7,48.5L1076,49.2L1075.5,49.7L1074.3,50.2L1074.1,50.6L1073.4,51.2L1071.9,52.3L1071.5,53.2L1070.7,53.6L1068.5,54.4L1068.7,54.8L1069.2,54.6L1069.9,54.7L1070.5,54.3L1071.3,54.1L1071.7,53.4L1072.5,53L1072.3,52.6L1072.8,52.1L1074.1,51.4L1074.7,50.4L1075.9,50.2L1076.6,49.6L1076.8,49.7L1076.3,50.2L1075.2,51L1075.3,51.4L1075.9,50.7L1076.8,50.7L1077.4,51L1077.4,51.9L1078,51L1079,50L1079.7,50.1L1080.3,50.6L1081.1,50.8L1081.3,50.2L1082.3,49.7L1082.6,49.9L1083.6,49.7L1084.5,49.9L1084.8,49.7L1085.6,49.9L1085.7,50.2L1086.7,49.9L1087.2,50.1L1087.6,49.7L1088.1,49.3L1089,49.1L1089.3,49.5L1088.8,49.7L1089.4,50L1089.2,50.5L1089.6,50.3L1090.6,50.5L1091.1,51.2L1091.2,51.6L1091,52.2L1090.5,52.4L1089.3,52.9L1088.9,53.1L1089.3,53.4L1089.8,53.8L1090.2,53.6L1090.2,54.3L1090.4,54.1L1091.1,54L1092.3,54.3L1092.3,54.9L1094,55.2L1094.2,54.3L1095,54.5L1095.6,54.5L1096.3,55.1L1096.5,55.9L1096.3,56.3L1096.9,57.3L1097.6,57.7L1098,56.5L1098.7,57L1099.5,56.6L1100.4,56.9L1100.6,56.5L1101.4,56.6L1100.8,55.6L1101.3,55L1105.2,55L1105.9,55.6L1107.4,56.2L1109,55.5L1109.9,55.4L1110.5,55.7L1111,56.5L1111.7,56.6L1112.1,56.1L1112.8,55.8L1113.7,55.7L1114.4,55.2L1115.8,55.8L1116,55.2L1115.1,54.7L1114.9,54.2L1116.3,53.8L1116.9,53.3L1118.3,53.1L1119.2,53.2L1120.8,53.2L1122.7,53.4L1123.4,54L1123.8,54L1123,53.4L1123.9,52.8L1125.5,53L1125.8,53.7L1125.4,54.3L1126.5,55.1L1126.6,55.4L1126.3,55.7L1125.6,55.6L1124.9,55.8L1124.3,55.4L1123.8,55.6L1123.5,56L1123,55.8L1122.7,55.4L1122.5,56L1123.1,56.3L1123.4,56.9L1123.4,56.9L1123.3,57.7L1122.8,58L1123.6,58.2L1124.7,58.9L1125.2,59L1125.6,59.4L1125.8,59.7L1124.8,60.1L1124.2,61.7L1123.9,62.1L1123.8,63.3L1123.6,64.4L1123.8,65L1122.4,64.6L1121.6,66.2L1121.1,65.9L1120.9,66.6L1120,66.8L1120.3,67.7L1120.2,69.1L1120.5,69.6L1121.4,69.6L1122.3,71.4L1121.7,71.7L1122,72.8L1122.6,73.2L1121.7,74.4L1122.1,75.9L1121.2,76.6L1121.5,78L1121,79.6L1120.3,78.8L1119.2,77L1117.6,74.3L1117.1,72.4L1117.4,71.5L1117.1,70.9L1118,70.2L1118.3,68.3L1118.7,66.7L1119.2,65.3L1118.5,63.5L1118,63.9L1118.2,65L1117.5,66.8L1116.2,65.5L1114.9,66.5L1114.3,69L1115.2,69.6L1113.9,70.4L1112.9,70.8L1112.6,69.8L1111.5,69.9L1110.8,70.7L1108.7,70.9L1106.4,71.7L1104.6,74.6L1102,78.1L1103.3,78.1L1103.8,78.9L1104.7,79.1L1105.1,78.4L1106,78.4L1107.5,79.7L1107.7,80.9L1107.3,82.3L1107.5,84L1107.5,86.2L1106.4,88.4L1106.2,89.4L1105,91.2L1103.8,92.9L1103.3,93.8L1101.9,94.7L1101.3,94.8L1100.6,94.1L1099.2,95.2L1099.1,95.7L1098.7,95.6L1098.2,96.1L1097.9,96.6L1098,97.6L1097.4,98L1097.2,98.2L1096.8,98.6L1096.1,98.9L1095.6,99.3L1095.6,99.9L1095.5,100L1095.9,100.3L1096.5,100.9L1097.5,102.6L1097.8,103.5L1097.9,105.2L1097.4,105.9L1096.4,106.2L1095.4,106.8L1094.4,106.9L1094.2,106.2L1094.5,105.1L1094,103.6L1094.8,103.4L1094.1,102.1L1093.5,101.8L1093.4,102.1L1093.1,102.2L1093,101.9L1092.7,101.8L1092.4,101.6L1092.8,101L1093,100.8L1093,100.5L1093.3,99.8L1093.2,99.5L1092.6,99.4L1092,99L1090.5,99.3L1089.6,99.9L1088.4,100.2L1089.1,99.6L1088.9,99L1089.8,98.1L1089.3,97.4L1088.3,97.8L1087,98.7L1086.2,99.5L1085.2,99.5L1084.5,100.1L1085,101.1L1085.9,101.5L1085.9,102.1L1086.7,102.6L1088.1,101.7L1089,102.3L1089.7,102.4L1089.9,103.1L1088.3,103.4L1087.7,104.2L1086.5,104.8L1085.8,105.7L1087,106.6L1087.4,108.1L1088,109.4L1088.8,110.6L1088.7,111.6L1087.9,112L1088.1,112.7L1088.8,113.2L1088.6,114.4L1088.2,115.5L1087.5,115.6L1086.5,117L1085.4,118.8L1084.1,120.3L1082.2,121.4L1080.3,122.4L1078.8,122.4L1078,122.9L1077.6,122.4L1076.8,122.9L1074.9,123.3L1073.6,123.3L1073,124.7L1072.3,124.6L1072,123.5L1072.4,123.1L1070.8,122.3L1070.1,122.4L1068.3,123.2L1067.1,124.2L1066.7,125.1L1067.5,126.7L1068.5,128.8L1069.6,129.8L1070.3,131.1L1070.6,133.6L1070.3,135.9L1069.1,136.5L1067.6,137L1066.4,137.8L1064.7,138.6L1064.3,137.6L1064.7,136.9L1063.8,135.9L1062.7,135.4L1062.3,134.6L1061.8,133.1L1060.7,132.2L1059.6,131.9L1059.9,131L1058.8,130.6L1058.6,132L1057.7,133.7L1057.2,134.7L1057.2,135.6L1058,135.9L1058.4,137.2L1058.6,138.4L1059.2,139.3L1060,139.7L1060.6,140.5L1060.9,140.7L1061.6,141.6L1062.1,142.6L1062.2,143.4L1062,143.9L1062.1,144.4L1062.2,145.1L1062.7,145.6L1063.2,146.7L1063.1,147.1L1062.2,147L1061,145.8L1059.5,144.4L1059.4,143.7L1058.6,142.7L1058.5,141.7L1058.1,140.9L1058.3,140L1058,139.4L1057.6,138.8L1057.4,138.1L1056.8,137.2L1056.2,136.4L1056,137.1L1055.8,136.3L1056,135.5L1056.5,134.5L1056.4,133.5L1056.9,132.6L1056.6,131.7L1056.8,130.4L1056.4,129.5L1056.3,127.9L1056.3,126.1L1055.9,124.9L1055.1,125.2L1053.6,125.7L1053,125.3L1052.3,124.7L1053,123.3L1053,122L1052.4,120.1L1052.6,119.7L1052,119.2L1051.4,117.8L1051.3,117L1051.4,116.3L1051.3,115.6L1051.1,114.6L1050.1,114.1L1050.1,114.7L1049.6,115.3L1049.2,114.8L1049,115L1048.7,114.7L1048.3,114.4L1048.1,114.8L1047.4,114.5L1046.1,114.1L1045.9,115.1L1045.1,115.6L1043.5,115.7L1042,116.6L1041.1,117L1039.9,117.2L1039.8,117.8L1039.2,117.9L1038.3,117.8L1037.8,117.6L1037.3,118.3L1037.2,120.1L1037,121.2L1036.4,122.1L1036,124.2L1035.5,123.9L1035,124.6L1035.2,125.2L1034.3,125L1033.9,125.6L1033.5,125.7L1032.8,123.9L1032.7,121.9L1032.5,120.4L1032.3,119.6L1032.1,118L1032.2,116.3L1032.3,115.4L1032,113.1L1032.3,110.4L1032.5,108.7L1033,107.1L1033.3,105.9L1031.9,105.6L1031.5,105L1031.1,102.6L1031.6,102.5L1031.6,101.8L1031.2,100L1030.8,99.2L1031,98.1L1030.9,96.7L1029.7,95.7L1028.8,94.6L1028,93.7L1027.2,92L1026.8,91L1026.4,90L1026.9,88.3L1026.9,87.8L1026.4,87.4L1025.8,87.2L1025.5,86L1025.7,84.4L1025.6,83.3L1026,81.8L1026.7,79.8L1026.5,79.6L1026.5,78.8L1026.2,78.9L1026.1,78.5L1025.8,79.1L1025.6,79.3L1025.2,80.3L1024.7,81.5L1024.7,82.2L1024.5,82.7L1024.4,83.6L1024.2,84.1L1023.9,84.4L1023.8,84.9L1023.7,85.4L1023.5,85.9L1023.4,86.3L1023.8,85.4L1024.2,85L1024.4,85.1L1024.3,85.7L1023.9,86.4L1023.5,86.9L1023.4,87.4L1023.4,87.5L1023.3,87.9L1023.6,88.3L1023.9,88.9L1024.1,89.4L1024.7,89.1L1025.4,88.9L1026,88.7L1026.3,88.5L1026.3,88.7L1026.1,89.1L1025.9,89.2L1025.5,90.2L1025.3,91.4L1025.3,92.2L1025.6,92.9L1025.8,93.5L1025.7,94.5L1025.6,95.1L1025.7,95.5L1025.6,95.8L1025.2,96.2L1024.9,96.5L1024.6,96.5L1024.1,97.1L1023.9,96.7L1023.7,96.8L1023.4,97.3L1023.1,98.1L1023,98.2L1022.8,97.9L1022.4,97.8L1022.1,98.3L1022,98.4L1021.7,97.9L1021.4,97.9L1021.3,98.4L1021,98.3L1020.8,97.8L1020.4,97.7L1020.2,97.4L1019.8,97.1L1019.6,97.5L1019.5,97.9L1019,97.6L1018.3,96.8L1017.8,96.9L1017.7,96.6L1017.7,96.3L1017.4,96.3L1017.2,96L1017,95.4L1016.9,95.2L1016.8,95.4L1016.7,95.2L1016.6,95.4L1016.5,95L1016.5,94.8L1016.4,94.2L1016.5,93.3L1016.7,92.7L1016.8,92.3L1017,91.3L1017.1,90.6L1017.2,90.7L1017.3,90.1L1017.4,90L1017.6,89.4L1017.8,88.9L1017.9,88.3L1018,87.8L1018.1,86.9L1018.4,85.6L1018.8,84.5L1019.1,83.2L1019.2,82.6L1019.6,81.1L1020,80.2L1020.3,79.6L1020.9,78L1021.1,77.2L1021.3,76.6L1021.6,75.7L1021.7,75.5L1022.1,74.8L1022.2,74.3L1022.7,73.3L1023.2,72L1023.7,70.9L1023.8,70.5L1024.1,70.1L1024.4,69.8L1024.6,69.5L1024.7,69.3L1024.5,69.5L1024,70.1L1023.6,70.4L1023.5,70.4L1023.8,69.9L1024.1,69.1L1025.2,67.2L1025.1,67.2L1024.4,68.5L1023.6,69.9L1022.5,72.1L1022.2,72.9L1021.8,73.7L1021.1,75.6L1021,75.6L1020.6,76.3L1020.1,78.1L1020,78.5L1019.5,79.8L1019.4,79.8L1018.9,81L1018.3,82.6L1018.2,83.2L1018,84.1L1017.5,85.8L1017.2,87L1017,88L1016.7,90.2L1016.6,91.3L1016.5,92.4L1016.4,93.1L1016.3,93.8L1016.3,94.4L1016.1,94.8L1016,94.6L1016,95.3L1016,95.8L1015.9,96.4L1015.8,97.3L1015.9,97.7L1016.1,98.2L1016.4,98.9L1016.7,99.3L1016.8,99.6L1017,99.7L1017.1,100.1L1017.2,100.4L1017.4,100.6L1017.6,100.9L1017.8,100.9L1017.9,101.2L1017.9,101.5L1017.7,102.1L1017.5,102.7L1017.4,103L1017,104L1016.6,104.9L1016.2,105.9L1015.8,106.9L1015.4,107.5L1015,108.1L1014.8,108.2L1014.5,108L1014.3,108.1L1014.2,108.6L1014.2,109L1014.2,109.1L1014.2,109L1014.2,109.2L1014.2,109L1014.2,109.5L1014.2,109.5L1014,106.6L1014,103.8L1014.1,100.9L1014.2,98.1L1014.5,95.2L1014.8,92.4L1015.3,89.5L1015.8,86.7L1016.5,84L1017.2,81.2L1018.1,78.5L1019,75.8L1020.1,73.1L1021.2,70.5L1022.4,67.9L1023.7,65.3L1025.1,62.8L1026.6,60.4L1028.1,58L1029.8,55.6L1031.5,53.3L1033.3,51.1L1035.2,49L1037.2,46.9L1039.2,44.9L1041.3,42.9ZM1159.4,52L1159.3,51.9L1159.1,51.6L1158.7,51.2L1158.4,50.9L1158.3,50.9L1158.4,51.1L1158.3,50.9L1158.5,51.2L1158.5,51.3L1158.8,51.8L1158.8,51.8L1158.4,51.5L1158,51.4L1157.2,50.9L1157,50.7L1156.9,50.7L1156.5,50.6L1155.9,50.1L1155.6,50L1154.7,49.3L1154,48.7L1153.4,48.4L1152.4,47.5L1151.5,46.9L1150.6,46.3L1149.3,45.5L1148.5,45.2L1148.2,45.1L1147.9,44.9L1147.8,44.3L1148.6,44.6L1148.3,44.3L1147.5,43.9L1146.8,43.7L1146.8,43.7L1146.4,44.2L1146.1,44.3L1146.1,45.1L1145.3,44.9L1144.6,44.4L1144.4,44.9L1143.5,44.5L1142.9,44.7L1142.3,44.5L1142,44.5L1141.7,44.8L1140.7,44.5L1139.9,44.6L1138.9,44.4L1138.9,44.8L1139,45.5L1138.7,45.8L1137.5,46.2L1137.3,46.5L1136.9,47L1137,47.7L1136.3,48.2L1135.7,48.4L1135.9,49L1136.8,49.4L1136.8,49.7L1137,50.3L1137.3,50.9L1137.5,51.5L1136.7,51.2L1135.6,50.3L1135.3,49.7L1135,49.6L1135.5,50.5L1136.2,51.3L1136.9,52.4L1137.6,52.4L1138.3,53.4L1138.6,54.2L1138.8,54.8L1139.3,55.3L1139.5,56.4L1140,57L1140.2,57.9L1140,58.1L1140,58.8L1140.1,59.6L1140.3,60.2L1140,61.3L1139.8,61.2L1139.7,60.3L1139.6,59.6L1139.3,58.6L1139.5,57.9L1139.2,57.4L1138.8,56.2L1138.6,56L1138.4,55.4L1137.5,54.7L1136.9,54L1137,54.7L1136.8,54.7L1137.1,55.2L1136.3,55.1L1136.7,55.5L1136,55.3L1136.3,56L1136.1,56.3L1135.4,55.8L1135,55.4L1134.4,55.4L1134.3,56.1L1133.6,56L1133.1,56L1132.4,55.6L1131.7,55.5L1131.2,54.9L1130.8,54.1L1130.2,53.6L1130.3,53.2L1130.7,53.1L1130.3,52.4L1130.6,52.2L1130.3,51.7L1129.8,51.4L1129.4,51.5L1129.1,51L1129,51.2L1129,51.7L1129.2,52L1128.8,52.1L1128.6,52.6L1128,52.9L1127.4,52.8L1126.4,52.7L1126.2,51.9L1126.1,50.8L1126.3,50.6L1126.9,51L1127.3,50.3L1126.4,50.1L1125.7,50.2L1124.9,50.1L1124.2,50L1123.5,50.2L1123,49.6L1123.3,49.1L1123,48.4L1122.4,48L1122,47.4L1122,47.1L1121.7,46.3L1121.9,46.1L1121.4,45.4L1121.8,45.1L1122.5,45.2L1122.3,44.9L1122.5,44.5L1122.8,44.6L1123.2,44.3L1123.1,44L1123.6,43.5L1123.8,43L1124,42.8L1123.8,42.4L1124.2,42.1L1124.4,41.8L1124.4,41.8L1124.7,41.3L1125.3,41L1125.4,40.7L1124.8,40.3L1124.3,39.9L1124.3,39.5L1123.6,38.9L1123.1,38.4L1123.6,38.3L1123.2,38.1L1122.6,37.9L1122.6,37.7L1123.6,37.4L1122.5,36.9L1123.5,37L1123.1,36.6L1122.6,36.5L1122.5,36.2L1122.7,35.8L1122.7,35.2L1122.6,34.8L1122.3,34.5L1122.6,34.2L1123.5,34.6L1123.3,34.1L1122.5,33.4L1122,33.1L1122.4,32.8L1121.5,32.5L1121.3,32.8L1120.8,32.7L1120.3,32.4L1120,32.2L1120,31.9L1120.3,31.7L1119.8,31.4L1119.7,30.9L1118.9,30.6L1118.4,30.2L1117.9,30.3L1117.4,30.1L1117.1,29.7L1118,29.6L1117,29.6L1116.7,29.4L1115.6,29.5L1115.5,29.8L1115.5,30.1L1114.4,30.3L1113.4,30.3L1113.1,30L1113.1,29.7L1113.6,29.2L1114.4,29.2L1113.8,28.8L1114.7,28.6L1113.5,28.6L1113.5,28.2L1114.2,28.1L1114.3,27.8L1113.3,27.7L1112.4,27.8L1111.5,28.1L1111,27.8L1110.5,27.6L1110.2,27.2L1110.5,27.1L1111.2,27L1111.2,26.8L1111.6,26.7L1113,26.9L1113.8,27.1L1114.1,27.3L1114.6,27.3L1115.7,27.4L1116.1,27.4L1117.2,27.5L1118,27.8L1118.7,28L1119.3,28L1120,28.2L1121.2,28.5L1122.7,28.8L1123.6,28.9L1124.6,29L1123.9,28.6L1124.4,28.5L1124.7,28.4L1123.8,28L1122.9,27.5L1122.6,27.2L1122.4,27.1L1121.8,26.7L1121.3,26.5L1120.2,26.1L1119.5,25.8L1120.2,25.9L1120.5,25.9L1120.6,25.8L1119.9,25.6L1119.2,25.4L1118.2,25.1L1117.8,25.1L1118,25.2L1116.6,24.9L1115.4,24.6L1114.7,24.5L1114.4,24.5L1114.5,24.7L1114.9,25L1113.5,24.8L1113.3,25L1112.7,25.2L1112.1,25.2L1111.2,24.8L1110.7,24.7L1110,24.6L1109.6,24.4L1109.1,24.1L1109,24L1107.9,23.8L1108.2,23.7L1108.5,23.5L1107.9,23.4L1107.6,23.2L1106.3,23.1L1105.3,23.1L1104.8,23.1L1104.4,22.9L1103.8,22.7L1103.2,22.5L1103.6,22.5L1102.7,22.4L1102.1,22.3L1100.8,22.2L1100.3,22.1L1100.1,22.1L1099.4,22.1L1099.3,22.1L1099.3,22.1L1102.1,22.2L1105,22.5L1107.8,22.9L1110.7,23.3L1113.5,23.9L1116.2,24.5L1119,25.3L1121.7,26.1L1124.4,27.1L1127.1,28.1L1129.7,29.3L1132.3,30.5L1134.9,31.8L1137.4,33.2L1139.8,34.7L1142.2,36.3L1144.5,37.9L1146.8,39.6L1149,41.5L1151.2,43.3L1153.3,45.3L1155.3,47.3L1157.2,49.4L1159.1,51.6ZM1116,26.4L1115.3,26.3L1114.5,26L1114.7,26L1115.7,26.2L1116.1,26.3ZM1107.2,28.2L1107.3,28.6L1107.1,28.7L1106.8,28.7L1106.1,28.4L1105.8,28L1105.9,27.9L1106.3,28L1106.7,28.1L1107.2,28.2ZM1114.1,25.6L1113.7,25.6L1113.5,25.5L1113.5,25.4L1114,25.4L1114.2,25.5L1114.2,25.6ZM1110.1,30.8L1110.6,30.8L1110.9,31L1111,31.3L1110.4,31.4L1109.8,31.2L1109.9,31ZM1107.8,31.7L1107.9,31.8L1108.3,32L1108.1,32.2L1107.6,31.9L1107.7,31.8ZM1107.2,32.6L1107.3,32.3L1107.7,32.2L1108.2,32.3L1108.2,32.5L1107.9,32.7L1107.5,32.8L1107.3,32.6ZM1109,29.9L1109.4,30.1L1109.9,30.6L1109.5,30.8L1109.1,31L1108.9,31.3L1109.3,31.6L1109.3,31.9L1108.8,32L1108.4,31.7L1108.4,31.4L1107.9,31.2L1108,31L1108.4,30.8L1108.3,30.6L1108.3,30.4L1107.9,30.3L1107.6,30.1L1106.9,30L1106.3,29.8L1105.8,29.6L1105.7,29.3L1105.9,29.1L1106.3,29L1106.9,29.1L1107.3,29.3L1108.3,29.6ZM1110.5,34.3L1110.4,34.1L1110.8,34.1L1111.5,34.3L1111.3,34.6L1110.8,34.5ZM1109.6,34.4L1109.7,34.2L1110.1,34.3L1110.3,34.6L1110.2,34.6L1109.6,34.5ZM1114.2,26.7L1113.8,26.5L1113.4,26.2L1113.7,26.1L1113.2,26L1113,25.8L1113.7,25.9L1114.4,26.2L1114.4,26.4L1115.3,26.5L1116.5,26.8L1116.2,26.9L1117,27.2L1116.2,27.1L1115.6,27.1L1114.7,27.2L1114.4,27.1L1114.6,27L1114.3,26.9ZM1107.1,27.9L1106.5,28L1106,27.6L1105.7,27.2L1105.8,27L1104.9,27L1104.8,26.6L1103.8,26.3L1103.6,26L1103.5,25.6L1104.5,25.6L1103.6,25.2L1102.8,25L1102.3,24.6L1101.4,24.5L1101.8,24.3L1103.1,24.1L1103.7,24.3L1104.3,24.7L1105,24.8L1105.3,24.6L1104.9,24.4L1104.3,24.1L1104.1,24L1104,23.7L1104.4,23.6L1105.1,23.8L1106.4,24.2L1105.8,23.9L1105.4,23.6L1105.4,23.6L1107,23.9L1108.1,24.3L1108.6,24.5L1108.3,24.5L1108.9,24.9L1109.5,25.2L1109.7,25.1L1111.4,25.5L1111.7,25.7L1110.9,25.7L1109.9,25.5L1108.7,25.2L1108.7,25.3L1108.2,25.4L1107.1,25.5L1107,25.7L1107.1,25.8L1107.6,26.2L1108.4,26.5L1107.9,26.5L1108.1,26.9L1108.4,27L1108.6,27.2L1109,27.2L1109.8,27.4L1111.2,28L1111.9,28.4L1112.4,28.7L1112.4,29L1111.6,28.9L1112.2,29.2L1111.4,29.5L1110.4,29.6L1109.7,29.6L1108.7,29.4L1109.4,29.2L1109.6,28.9L1108.7,29.1L1107.5,28.9L1107.6,28.3L1108.1,28.1ZM1111.1,30.7L1110.5,30.4L1110.2,30L1111.4,30L1112,30.1L1113,30.1L1113.3,30.3L1112.7,30.6L1112.2,30.8L1111.6,30.8ZM1114.6,36.1L1113.4,35.8L1112.3,35.5L1112.1,35.2L1111.8,35L1112.8,35L1113.3,35.1L1113.5,35.2L1114.3,35.5L1114.7,35.8ZM1143.5,45.9L1143.3,45.4L1144.6,46.2L1145.4,46.2L1145.4,46.4L1145,46.5L1144.5,46.4L1144.3,46.5L1143.8,46.3L1143.4,46.1ZM1108.2,33.8L1108,33.5L1108,33.1L1108.3,32.8L1108.7,32.6L1108.9,32.9L1108.8,33.2L1109.2,33.5L1108.7,33.4L1108.6,33.7ZM1147.5,44.3L1147.8,44.6L1147.8,45.3L1147.5,45.2L1147.3,45.5L1147.1,45.4L1147.1,45.9L1146.6,45.8L1146.4,45.6L1146.4,45.1L1146.4,44.9L1146.3,44.5L1146.5,44.5L1146.9,44.5L1147,44.2ZM1116.6,35.9L1116.6,35.6L1116.3,35L1116.5,34.8L1116.9,34.6L1117.4,34.8L1118.7,35.4L1119.8,35.7L1120.3,35.7L1121.4,36.5L1120.9,36.6L1120.5,37.1L1119.9,36.9L1118.9,36.7L1117.9,36.4L1117.2,36.6ZM1112.6,33.3L1112.2,33.2L1112,33L1112.5,32.9L1113.2,32.9L1114.1,33.5L1115.1,33.9L1115.4,34.2L1115,34.3L1114.1,33.9L1115.1,34.8L1115,35.1L1113.6,34.9L1113.1,34.7L1113.1,34.2L1113.5,33.8L1113.2,33.5L1112.4,33.9L1111.8,33.8L1111.7,33.6L1112.2,33.5ZM1115.4,32.6L1115.6,32.4L1116.5,32.1L1117.1,31.9L1117.2,31.5L1117.1,31.1L1117.6,31L1118.2,31.4L1118.4,31.2L1118.9,31.2L1119.3,31.7L1119.5,32.1L1119.9,32.4L1120.9,32.9L1121.7,33.5L1122.3,34L1121.9,34.2L1121.9,34.5L1122.2,34.8L1121.5,35L1121.2,34.9L1120.7,34.4L1120.4,34.1L1119.9,33.8L1120.1,34.2L1120.7,34.8L1120.9,35.2L1120.6,35.3L1119.6,34.7L1119.9,35.1L1119.9,35.5L1118.8,35.2L1118.2,35.1L1117,34.5L1117,34.3L1117.7,34.3L1116.9,33.9L1117.2,33.5L1116.3,33.3L1116.5,33.1L1117.4,32.8L1116.8,32.8L1115.8,33L1115.5,32.9ZM1114.2,31.4L1113.8,31.7L1113,31.6L1112.9,31.4L1112.3,31.1L1112.5,31L1113.2,31L1113.2,30.6L1114.1,30.5L1115,30.7L1115.2,30.9L1115.1,31.1L1115,31.8L1114.6,31.8ZM1114.8,32.7L1114.5,32.5L1114.5,32.3L1115.5,32.4L1115.1,32.8ZM1109.6,32.1L1109.9,31.8L1110.4,31.7L1111.3,31.5L1111.8,31.8L1111.9,32L1111.3,32.1L1111.7,32.4L1110.9,32.6L1110.7,32.4L1110,32.3L1109.8,32.1ZM1105.3,33.2L1104.9,33.3L1104.6,33.2L1104.5,33.3L1104.1,33.2L1104.3,32.8L1104.2,32.6L1104,32.3L1104.4,31.9L1104.4,31.7L1105,31.7L1106,31.5L1106.5,31.7L1106.8,31.9L1106.7,32.2L1106.3,32.4L1105.9,32.4L1106.3,32.6L1106.2,32.8L1105.8,33.1ZM1103.3,33.4L1102.9,33.4L1102.7,33.3L1102.3,33.3L1101.8,33.4L1101.6,33.3L1101.7,33.1L1101.1,33.3L1100.8,33.4L1100.5,33.3L1100,33.2L1100,33.1L1099.4,33.1L1099.1,33L1098.8,32.9L1098.4,32.8L1098,32.6L1097.8,32.4L1097.8,32.2L1098.4,32L1099,31.9L1099.2,31.8L1098.8,31.8L1099.5,31.5L1100,31.3L1100.7,30.9L1101.3,30.9L1101.6,30.9L1102.4,31L1102.1,30.8L1102.4,30.8L1102.4,30.5L1102.9,30.3L1103.5,30.3L1103.8,30.2L1104.4,30.1L1104.5,30L1104,29.9L1104.2,29.8L1105.3,29.7L1105.9,30.1L1106.9,30.4L1107.2,30.6L1107.6,30.8L1107.3,31L1106.6,30.9L1106.1,31.3L1105.9,31.2L1105.6,30.8L1105.4,31.2L1105.7,31.4L1105.2,31.5L1104.6,31.5L1104.2,31.6L1104.2,31.9L1103.9,32.2L1103.4,32L1103.3,31.9L1102.7,31.9L1103.1,32.2L1103.8,32.4L1103.9,32.7L1103.7,33L1103.6,33.2ZM1108.3,25.9L1108.8,25.9L1109.4,26L1109.3,26.2L1108.7,26.3L1108.2,26.2L1108,26L1108.2,25.9ZM1116,30L1116.1,29.8L1116.7,29.9L1116.9,30.2L1117.3,30.4L1117.3,30.7L1116.7,30.6L1116.1,30.5L1116,30.2L1115.9,30.1ZM1171,91.9L1171.1,91.8L1171.2,91.8L1171.4,92L1171.4,92.1L1171.4,92.7L1171.4,93.1L1171.4,93.4L1171.3,93.5L1171.1,93.1L1170.9,92.8L1170.9,92.6L1170.9,92.3L1170.8,92.2L1170.7,92L1170.8,92ZM1170.4,91.5L1170.5,91.7L1170.4,92.1L1170.2,92L1170.2,92L1170.1,91.9L1170.1,91.7L1170.3,91.6ZM1170,91.6L1170,91.8L1169.8,92.2L1169.8,92ZM1169.3,92L1169.3,92L1169.6,92.2L1169.6,92.3L1169.6,92.3L1169.4,92.5L1169.3,92.4L1169.2,92.4ZM1168.5,92.4L1168.6,92.7L1168.6,92.9L1168.4,92.9L1168.4,92.8L1168.4,92.6ZM1132.9,56.6L1133.3,56.4L1133.7,56.6L1133.7,57L1133.3,57.1L1132.8,57.1ZM1138.7,53.1L1138.9,52.8L1139.3,52.9L1139.7,53.6L1140,54.3L1139.6,54.4L1139.1,54.1L1138.8,53.4ZM1127.5,55.5L1127.9,55.4L1128,55.1L1128.5,55.1L1129,54.9L1129.1,55L1129.1,55.4L1128.6,55.5L1128.3,55.5L1128.1,55.8L1127.9,55.8ZM1114.6,154.4L1117,154.8L1119.5,155L1120.5,155.4L1121.2,155.8L1121.4,156.4L1123.6,156.6L1123.9,157.1L1122.6,157.4L1122.9,158.1L1124.1,158.5L1124.8,159.4L1125.6,159.2L1125.5,159.6L1126.5,159.6L1126.1,159.9L1127.4,159.9L1127.3,160.3L1126.4,160.5L1126.1,160.4L1125,160.5L1123.7,160.7L1122.7,160.2L1122,159.8L1121.3,159.1L1119.6,159L1118.4,159.5L1117.6,159.9L1117.7,160.7L1116.6,161.2L1115.9,161.1L1114.4,161.3L1113.3,160.6L1111.9,160.6L1111.5,160.9L1109.7,161.1L1110.4,160.3L1111.2,159.9L1110.9,158.8L1110.3,158L1107.5,157.3L1106.4,157.3L1104.3,156.4L1103.8,157L1103.3,157.1L1103,156.7L1103,156.3L1101.9,155.8L1103.4,155.3L1104.4,155.3L1104.3,155L1102.2,155.1L1101.7,154.4L1100.4,154.3L1099.8,153.7L1101.7,153.4L1102.4,153L1104.7,153.3L1105,153.7L1105.3,155.5L1106.8,156.1L1108,154.8L1109.6,154L1110.9,153.8L1112.1,154.1L1113.1,154.4ZM1130.3,152.4L1130.8,152.6L1130.9,153.1L1130.5,153.5L1130.3,152.9L1130,152.6L1129.4,152.4L1128.7,152.1L1127.7,152L1128.1,151.7L1128.8,151.8L1129.2,151.9L1129.8,152ZM1128.4,155.2L1127.7,155.6L1127,156L1126.3,156.2L1125.3,156.2L1124.5,156L1124.6,155.7L1125.8,155.6L1126.5,155.3L1126.8,154.7L1127,154.7L1127.1,155.2L1127.8,154.9L1128.2,154.5L1128.9,153.9L1128.8,153.3L1129.6,153.1L1129.9,153.2L1129.8,153.8L1129.4,154.6L1128.7,154.8ZM1132.9,153.4L1133.3,153.5L1133.9,154L1134.4,154.2L1134.2,154.5L1133.9,154.8L1133.4,154.5L1132.9,154L1132.6,153.3L1132.8,153.1ZM1092.1,162.8L1091.2,163.5L1090,163.7L1089.8,163.5L1089.9,163.2L1090.5,162.6L1091.9,162.3L1092.1,162L1093.3,161.8L1094.3,161.8L1094.7,161.7L1095.2,161.8L1094.7,162.1L1093.3,162.5ZM1105,160L1104.9,159.2L1105.1,158.8L1105.4,158.4L1105.7,158.7L1105.7,159.2ZM1078.4,145.1L1079.5,144.4L1080.3,143.5L1080.8,143.6L1081.5,144.3L1081.6,144.8L1082.5,145.2L1083.7,145.7L1083.6,146.2L1082.6,146.2L1082.9,146.8L1081.8,147.1L1081,148.1L1082,149.3L1081.8,149.9L1083.4,151.1L1081.7,151.1L1081.2,151.8L1081.3,152.8L1079.9,153.5L1079.9,154.6L1079.4,156.2L1079.2,155.8L1077.6,156.1L1077,155.3L1076,155.1L1075.3,154.7L1073.7,154.8L1073.2,154.2L1072.3,154.1L1071.2,153.7L1070.9,152.2L1070.3,151.8L1069.6,150.7L1069.4,149.6L1069.6,148.6L1070.4,147.9L1071.4,148.5L1072.4,148.5L1072.7,147.6L1073.3,147.4L1075,147.4L1076,146.7L1076.7,146L1077.3,145.6ZM1098.1,155.9L1099.7,156.2L1100.2,157L1099,156.6L1097.8,156.5L1097,156.6L1096,156.5L1096.4,155.9ZM1094.6,157L1093.6,156.8L1093.3,156.3L1094.8,156.2L1095.1,156.6ZM1096.1,150.2L1096.2,150.8L1097,150.9L1097.2,151.4L1097.1,152.4L1096.4,152.3L1096.1,153L1096.7,153.6L1096.3,153.7L1095.8,153L1095.3,151.5L1095.6,150.6ZM1088.9,151.5L1090.6,151.5L1092,150.7L1092.2,151L1091.1,152.1L1090,152.3L1088.6,152L1086.3,151.9L1085,152L1084.8,152.9L1086.1,154L1086.9,153.5L1089.5,153.3L1089.4,153.8L1088.8,153.6L1088.2,154.2L1086.9,154.6L1088.3,156.1L1088,156.5L1089.3,157.8L1089.3,158.5L1088.5,158.8L1088,158.4L1088.7,157.5L1087.3,157.8L1086.9,157.5L1087.1,157.1L1086.1,156.4L1086.2,155.3L1085.2,155.6L1085.4,156.9L1085.4,158.4L1084.5,158.5L1083.9,158.2L1084.3,157.2L1084.1,156.1L1083.5,156.1L1083,155.3L1083.6,154.6L1083.8,153.7L1084.5,152.1L1084.8,151.6L1086,150.8L1087.1,151.3ZM1085.4,163.3L1083.5,162.4L1084.8,162.3L1085.5,162.7L1086,163L1086,163.3ZM1086.8,161.7L1087.7,161.6L1089,161.3L1088.8,161.9L1086.7,162.1L1084.8,161.8L1084.8,161.4L1085.9,161.3ZM1082.5,161.1L1083.3,161.1L1083.7,161.6L1082.1,161.6L1081.1,161.7L1080.4,161.6L1080.8,161L1081.6,161.1L1081.9,160.8ZM1069,157L1069.2,157.5L1071.8,158.1L1072,157.7L1074.6,158.6L1075.1,159.4L1077.2,159.9L1078.9,160.7L1077.4,160.9L1075.8,160.3L1074.6,160.1L1073.2,159.8L1071.9,159.4L1070.3,158.7L1069.3,158.4L1068.8,158.4L1066.3,157.4L1066.1,156.9L1064.8,156.6L1065.7,155.8L1067.3,156.2L1068.4,156.8ZM1063.3,149.9L1063.5,150.8L1064,151.5L1065,151.8L1065.6,152.7L1065.4,154L1065.4,155.6L1063.9,155.3L1062.8,154.1L1061.1,152.8L1060.5,152L1059.5,150.8L1058.8,149.8L1057.8,147.9L1056.7,146.6L1056.4,145.4L1055.9,144.4L1054.8,143.3L1054.2,142L1053.3,141L1052.1,139.2L1052.1,138.6L1052.8,138.9L1054.7,139.8L1055.7,141.4L1056.7,142.5L1057.3,143.2L1058.5,144.9L1059.8,145.3L1060.9,146.4L1061.6,147.6L1062.6,148.4L1062.1,149.2L1062.8,149.8ZM1088.8,45.1L1089.4,45.1L1089.4,45.7L1089.2,46.7L1088.6,47.6L1088,47.5L1087.5,47L1087.5,46.5L1087.9,45.8L1087.8,45.5ZM1089.5,47.4L1089.9,48.1L1089.6,48.5L1087.8,48.5L1089.1,47.3L1089.4,47.3ZM1099.7,51.4L1100.6,51.4L1102.1,51.7L1102.1,52.6L1100.7,52.8L1100.2,53.1L1099.3,52.5L1099.3,51.7ZM1103.2,51.7L1104.2,51.8L1104,52.3L1103.4,52.4L1102.6,52.1L1102.5,51.7ZM1100.9,54.4L1101.1,53.9L1101.6,53.8L1102.3,54.1L1102.4,54.4L1101.8,54.5L1101,54.5ZM1082.7,39.9L1083,40.1L1083.1,40.3L1082.7,40.4L1083.1,40.4L1083.3,40.5L1083.1,40.8L1082.9,40.8L1082.6,40.6L1082.5,40.5L1082.3,40.6L1082,40.5L1082.3,40.2L1082.7,40.2ZM1073.9,44.4L1075.3,44.4L1075.9,44.1L1076.8,44.3L1078.1,44.5L1078.8,45L1079.5,45.1L1080,45.3L1079.6,45.7L1079.2,45.8L1078,45.5L1076.9,45.2L1075.2,45.1L1073.8,45.4L1072.3,45.6L1071.3,46.1L1070.5,47.2L1070.3,47.1L1070,46.1L1070.5,45.8L1070.7,45.1L1071.4,44.8L1071.8,44.9L1072.5,44.6L1073.8,44.6ZM1108.6,78.7L1109.2,79.9L1109.5,81.3L1110.1,82.6L1111.5,84.9L1110.1,84.6L1110,86.7L1111.1,88L1111.3,89L1110.4,88.2L1110,89.4L1109.6,88.3L1109.5,86.9L1109.1,85.4L1109.1,84.4L1108.8,82.5L1108,81.3L1107.7,79.4L1108.3,78.7L1107.9,78.1L1108.2,77.8ZM1116.5,50.9L1116.5,50.9L1116.7,50.7L1117.5,50.6L1117.6,50.7L1117.6,51.2L1117.3,51.5L1117,51.8L1116.6,51.6ZM1082.4,35.7L1082.9,35.8L1082.8,36L1082.2,36.2L1080.9,36.6L1080.6,36.2L1079.7,36.1L1079.5,36L1078.5,35.8L1078.6,35.6L1079.6,35.3L1080,35.5L1080.5,35.3L1081.9,35.1L1082.9,35.1L1083.1,35.5L1082.6,35.5ZM1082.1,37.5L1081.4,37.3L1081.4,36.9L1081.9,36.4L1082.2,36.4L1082.4,36.2L1083.1,36.1L1083.2,36.5L1082.8,36.7L1083.1,36.9L1082.7,37.2ZM1079.2,37.2L1078.8,36.8L1079.3,36.5L1079.6,36.6L1080,36.5L1080.1,36.9L1079.6,36.9ZM1095,32.4L1094.5,32.8L1093.9,32.9L1093.8,33.1L1093.3,33.3L1092.1,33.5L1090.6,33.3L1090.6,33L1091.2,32.7L1092.2,32.4L1092,32.4L1091.4,32.6L1090.6,32.5L1090.5,32.8L1090.1,32.7L1089.9,32.3L1089.7,32.6L1089.2,33.2L1088.5,33.3L1088,33.1L1088.1,32.5L1088.1,32.3L1088.6,32L1088.1,32.1L1087.7,31.7L1087.4,31.3L1086.6,30.8L1085.8,30.6L1086.2,30.4L1086.4,30.1L1085.5,30.1L1084.8,29.8L1085,29.6L1084,29.4L1084.7,29.1L1084,29.1L1083.9,28.9L1084.2,28.7L1084.7,28.5L1083.8,28.4L1083.5,28.3L1084.5,28.2L1084.6,28L1083.9,28.1L1083,28.1L1082.3,27.8L1082.9,27.5L1083.4,27.6L1084.3,27.6L1083.8,27.4L1083.9,27.1L1082.8,27.4L1082.2,27.6L1082.8,27L1083.6,26.4L1084.8,25.9L1085.4,25.8L1085.7,25.5L1086,25.1L1086.9,24.7L1087.3,24.6L1088,24.4L1088.7,24.2L1089.1,24L1088.9,23.8L1089.1,23.6L1089.9,23.3L1089.5,23.2L1089.6,23L1089.8,22.8L1090.8,22.7L1091.9,22.8L1093.3,22.7L1094,22.8L1094.5,23L1095.7,23.3L1096,23.4L1096.1,23.7L1096.9,24L1096.7,24.2L1097,24.3L1096.4,24.7L1095.7,24.9L1095.5,25L1095.4,25.3L1095.9,25.2L1096.2,25.1L1096.7,25.1L1097.3,25.2L1097.3,25.5L1097,25.7L1096.6,25.7L1095.6,25.6L1096.5,25.9L1096.8,26L1097.3,26L1097.7,26.1L1097.1,26.5L1097.3,26.7L1097.6,27L1098,27.6L1098.4,27.8L1098.3,28L1099.1,28.4L1099.8,28.5L1100.7,28.6L1101.6,28.7L1101.8,29L1102.1,29.4L1101.2,29.4L1100.5,29.3L1101.7,29.7L1102.1,30.1L1101.9,30.3L1100.7,30.3L1099.5,30.5L1099.3,30.7L1099.9,31L1099.5,31.2L1098.5,31.5L1098.2,31.6L1098.1,31.9L1097.6,32L1097,32.1L1096.4,32L1096.2,31.8L1095.7,32.2L1095.2,32L1094.9,31.9L1094.4,31.7L1095,32.1ZM1043.3,41.9L1043.3,42L1042.5,42.6L1042,42.9L1042.4,42.5L1043.1,42ZM1017.7,128.3L1017.6,128L1017.4,127.3L1017.4,127.1L1017.6,127.9L1017.6,127.9L1017.8,128.5L1018.1,129.5L1018.5,130.9L1018.8,131.6L1018.9,132L1019,132.2L1018.7,131.3L1018.7,131.4L1018.7,131.4L1017.8,128.7ZM1146,158.3L1146.5,158.5L1146.1,158.8L1145.9,158.6ZM1145.6,158.3L1145.5,158.1L1145.7,157.4L1146.1,157.5L1146.1,158.1L1145.8,158.2ZM1030.4,57.9L1030.2,58.1L1030.5,57.2L1030.7,57L1031.2,56L1031.4,55.8L1031,56.5L1030.9,56.9L1030.6,57.5L1030.5,57.6ZM1061.3,30.7L1060.6,31L1060.3,30.9L1060.9,30.4L1062,29.8L1062.3,29.9L1063.4,29.5L1063.2,29.9L1063.1,30L1062.7,30.3L1061.5,30.8ZM1143,163.6L1143.7,163.7L1144,163.8L1143.6,164.2L1143.1,164.3L1142.5,164.2L1142,164.1L1141.5,163.8L1141.4,163.6L1141.9,163.4L1142.4,163.4L1142.8,163.5ZM1141.4,155.6L1141.7,155.8L1140.8,156.1L1140.5,155.7L1141.2,155.7ZM1141,154.9L1140.8,155.2L1140,154.6L1139.8,154.1L1140.3,154L1140.6,154.6ZM1140,155.6L1139.5,155.8L1138.8,155.9L1138.6,155.9L1138.7,155.4L1139.5,155.3L1139.8,155.4ZM1138.8,154.2L1139,154.4L1139,154.6L1138.1,154.5L1137.5,154.4L1137.1,154.2L1137.3,154L1137.8,154.1ZM1135.8,154.2L1136.3,154.4L1136,154.6L1135.5,154.5L1135,154.2L1135.1,154ZM1143.4,170.9L1142.7,171.4L1141.9,172L1141.1,172.5L1141.1,172.5L1140.9,172.6L1141.9,171.9L1142,171.8L1141.5,172.1L1141.7,171.9L1142.5,171.4L1143.1,170.9L1143.5,170.5L1143.6,170.4L1143.8,170.2L1143.6,170.2L1143.5,170.1L1143.6,169.9L1143.9,169.7L1144.1,169.7L1144.5,169.5L1144.2,169.9L1144.1,170.1L1144.6,169.7L1144.8,169.6L1144.4,170L1144.8,169.8L1145.2,169.5L1145.9,169L1146.2,168.8L1145.4,169.4L1144.8,169.9L1144.2,170.3L1143.8,170.6L1143.6,170.7ZM1137.6,174.6L1137.4,174.8L1136.5,175.3L1136.3,175.4L1136.3,175.4L1133.7,176.8L1132,177.7L1131.6,177.9L1131.7,177.8L1132.6,177.4L1134.2,176.5L1134.8,176.2L1135.6,175.8L1135.6,175.8L1136.6,175.2L1137.4,174.7L1138.3,174.2L1138.7,173.9L1139.2,173.6L1140,173.1L1139.9,173.2L1139.8,173.3L1140.6,172.7L1140.6,172.8L1140.3,173L1139.7,173.4L1138.7,174L1138,174.4L1138,174.4L1138,174.4ZM1117,181.8L1117.6,181.7L1117.3,182.1L1116.9,182.3L1116.5,182.5L1116.2,182.5L1115.3,182.9L1115.1,182.9L1114.5,183L1114.2,182.9L1114.2,182.7L1113.9,182.5L1114,182.4L1114.7,182.3L1115.6,182.2L1116.2,182ZM1093.9,180.4L1092.7,180.6L1091.6,180.7L1091.4,180.9L1091,181.1L1090,181.1L1089.3,181.1L1088.2,180.9L1087.4,180.9L1086.6,180.9L1085.9,181.1L1085.6,181L1085,181.1L1084.5,181.2L1083.7,181.1L1082.9,181L1081.6,180.5L1080.9,180.4L1080.8,180.1L1081.4,180.1L1081.6,180L1081.5,179.8L1081.5,179.5L1081.3,179.1L1080.5,178.5L1080.2,178.1L1080.1,177.8L1079.6,177.3L1079.5,177.2L1078.9,176.8L1078.6,176.3L1077.8,175.7L1077.5,175.4L1078.1,175.8L1077.6,175.1L1078.2,175.4L1078.7,175.7L1078.6,175.3L1077.8,174.7L1077.7,174.5L1077.3,174.2L1077.4,173.8L1077.6,173.7L1077.7,173.3L1077.5,172.9L1077.9,172.4L1078.1,173L1078.6,172.6L1079.6,172.4L1080.2,172.2L1081.2,172L1081.7,172L1082.1,172.2L1083.1,172L1083.9,172L1084.1,171.8L1084.5,171.8L1085.2,171.9L1086.6,171.7L1087.3,171.4L1087.6,171L1088.4,170.7L1088.4,170.3L1088.4,169.9L1089.3,169.2L1089.9,170L1090.5,169.8L1090,169.4L1090.4,169L1091,169.2L1091.2,168.5L1091.9,168.1L1092.3,167.8L1093,167.7L1093,167.4L1093.6,167.5L1093.6,167.3L1094.2,167.2L1094.9,167.1L1095.9,167.5L1096.7,168L1097.5,168L1098.4,168.1L1098.1,167.6L1098.8,166.9L1099.4,166.6L1099.2,166.4L1099.8,165.8L1100.7,165.5L1101.4,165.5L1102.6,165.3L1102.6,164.8L1101.5,164.6L1102.3,164.4L1103.2,164.6L1103.9,164.9L1105.1,165.1L1105.5,165L1106.4,165.2L1107.2,164.9L1107.7,164.9L1108,164.7L1108.6,165.1L1108.3,165.6L1107.7,166.1L1107.2,166.1L1107.4,166.5L1106.9,167L1106.4,167.5L1106.5,167.7L1107.6,168.1L1108.6,168.3L1109.3,168.5L1110.2,168.9L1110.6,168.9L1111.3,169L1111.5,169.3L1112.7,169.4L1113.6,169L1113.9,168.5L1114.2,168.1L1114.5,167.6L1114.9,166.8L1114.8,166.4L1114.9,166.1L1114.8,165.6L1115,164.9L1115.3,164.7L1115.1,164.4L1115.5,163.8L1115.8,163.3L1115.8,163L1116.4,162.5L1116.7,162.9L1116.8,163.5L1117.1,163.6L1117.1,164L1117.6,164.4L1117.6,164.9L1117.5,165.2L1117.9,165.9L1118.8,165.4L1119.2,165.7L1119.8,165.9L1119.6,166.4L1119.8,167.1L1120,167.5L1120.3,167.5L1120.5,168.2L1120.3,168.6L1120.6,169.1L1121.9,169.3L1122.8,169.5L1123.5,169.6L1123.3,169.9L1123.9,170.2L1124.2,170.9L1124.7,170.6L1125.1,170.8L1125.5,170.6L1125.4,171.4L1126.1,171.6L1126.6,171.8L1127.3,172.1L1127.4,172.6L1127.3,172.9L1127.1,173.4L1127.4,173.8L1127,174.4L1126.7,174.7L1126.1,175.4L1126,175.7L1125.5,176.2L1124.8,176.8L1123.8,177.3L1123.1,177.8L1122.6,178.2L1122,178.7L1121.4,179L1120.9,179.5L1120.6,179.8L1120.5,179.9L1119.8,180.2L1118.6,180.5L1117.5,180.9L1116.9,181.1L1116.2,181.4L1115.4,181.4L1114.8,181.5L1115.1,181.2L1114.5,181.4L1113.3,181.9L1112.5,181.9L1111.9,182L1111.3,182L1110.3,182.1L1109.7,181.9L1109.6,181.6L1109.4,181.4L1108.9,181.3L1107.9,181.4L1108.3,181.1L1108.1,180.8L1107.5,181.2L1106.4,181.4L1107.1,181.1L1107.4,180.8L1107.9,180.5L1107.9,180.1L1106.8,180.6L1106,180.9L1105.5,181.3L1104.6,181.2L1104.7,180.9L1104.1,180.6L1103.5,180.5L1103.7,180.3L1102.2,180.1L1101.4,180.1L1100.2,179.9L1098,180L1096.5,180.2L1095.1,180.4ZM1037.4,128.9L1037.2,130L1036.7,130.1L1035.9,129.9L1035.5,128.6L1035.5,126.7L1036.2,125L1036.8,126.2L1037.1,127.3ZM1071.4,127.3L1070.4,126.7L1070.5,125.5L1071.2,125L1072.6,124.9L1073.4,125.1L1073.6,125.7L1073,126.2L1072.6,126.9ZM1088.1,120.9L1087.2,123.1L1086.6,124.2L1085.9,122.9L1085.8,121.9L1086.7,120.6L1087.8,119.6L1088.3,120ZM1036.7,48.2L1036.4,48.6L1035.9,49L1035.6,49.3L1035.3,49.5L1036,48.8L1036.3,48.4L1037.3,47.2L1037.7,46.9L1037.1,47.7ZM1041.9,42.9L1041.9,43L1041,43.7L1040,44.5L1040.3,44.2L1040.2,44.2L1040.6,43.8L1041.6,43L1042.2,42.5ZM1054.7,37.6L1054.1,37.9L1053.4,37.9L1054.4,37.2L1054.9,37ZM1059.1,32L1059.1,32L1059.5,31.9L1060.4,31.5L1060.4,31.5L1061.3,31.1L1061.6,30.9L1061.8,31L1062.2,30.8L1062.1,30.7L1063,30.5L1063.7,30.3L1064.4,30.3L1064.7,30.4L1064.2,30.7L1063.7,31.1L1063.3,30.9L1062.9,31.2L1062.3,31.6L1061.7,31.6L1061.4,31.5L1060.8,31.8L1060.6,31.9L1059.1,32.5L1058.6,32.8L1057.2,33.3L1056.7,33.5L1055.9,34.1L1055.4,34.2L1055.4,34.1L1054.7,34.4L1054.8,34.2L1055.5,33.7L1056.3,33L1056.7,32.8L1056.7,32.7L1057.4,32.3L1057.5,32.1L1058,31.8L1057.9,32.1L1057.6,32.4L1057.6,32.4L1058.7,31.7L1059.2,31.5L1058.8,31.8L1059.6,31.5L1060,31.4ZM1076,28.1L1075.6,28L1074.5,28.1L1074.5,27.8L1075.5,27L1075.8,26.8L1076.6,26.6L1078.3,26.1L1078.1,26.4L1079.6,26.1L1078.8,26.4L1079,26.4L1080.2,26.1L1080.3,26.4L1079.6,26.7L1078.4,26.8L1078,27.2L1077.2,27.4L1076.8,27.8ZM1086.2,136.7L1085.5,135.6L1086.7,135.7L1087.2,136.3L1086.8,137.4ZM1088.6,140.3L1088.9,140L1089.1,139.2L1089.9,139.2L1089.6,140L1090.7,138.8L1090.5,140.1L1090,140.5L1089.6,141.2L1089.1,141.6L1088.3,140.7ZM1093.9,142.5L1094,143.4L1094.1,144.1L1093.6,145.2L1093.1,143.9L1092.4,144.5L1092.9,145.5L1092.5,146L1090.8,145.3L1090.4,144.3L1090.9,143.8L1090,143.1L1089.5,143.6L1088.9,143.6L1087.8,144.2L1087.6,143.8L1088.1,142.8L1089,142.5L1089.8,142L1090.3,142.6L1091.4,142.3L1091.6,141.8L1092.6,141.8L1092.5,140.8L1093.7,141.4L1093.8,142.1ZM1082.8,140.8L1080.9,141.8L1081.7,141L1082.7,140.3L1083.5,139.5L1084.3,138.3L1084.5,139.3L1083.6,140ZM1088.5,129.4L1088.3,130L1088.7,131L1088.3,132.1L1087.5,132.5L1087.2,133.5L1087.5,134.6L1088.2,134.8L1088.8,134.7L1090.6,135.5L1090.4,136.2L1090.9,136.5L1090.7,137.1L1089.6,136.4L1089.1,135.7L1088.8,136.2L1087.9,135.4L1086.6,135.5L1086,135.1L1086.1,134.6L1086.5,134.3L1086.1,133.9L1085.9,134.4L1085.3,133.6L1085.1,133L1085.1,131.7L1085.6,132.2L1085.8,130.1L1086.3,128.9L1087.1,129L1088,129.4L1088.4,129.1ZM1087.8,138.5L1087.6,137.8L1088.5,138.3L1089.3,138.3L1089.3,138.9L1088.7,139.4L1087.8,139.7L1087.7,139.1ZM1092.7,137.7L1093.1,139.1L1092,138.8L1092,139.2L1092.4,140L1091.7,140.3L1091.6,139.4L1091.2,139.3L1091,138.5L1091.8,138.6L1091.8,138.1L1091,137.1L1092.3,137.2ZM1111.4,99L1110.6,100.5L1110.8,102L1110.6,103.2L1110.8,103.9L1110.4,105L1109,105.8L1107,106.1L1105.4,107.9L1104.6,107.4L1104.5,106.3L1102.5,106.8L1101.1,107.5L1099.7,107.6L1100.9,108.6L1100.2,111.1L1099.5,111.7L1098.8,111.2L1099.1,109.9L1098.3,109.5L1097.8,108.5L1099,108L1099.6,107.1L1100.7,106.3L1101.5,105.3L1103.8,104.8L1105.1,105L1106,102.3L1106.9,102.9L1108.3,101.3L1108.9,100.7L1109.4,98.9L1109,97.3L1109.3,96.4L1110.4,95.9L1111.2,97.8ZM1113,91.8L1113.6,91.1L1114.1,92.6L1112.7,93.3L1112.1,94.8L1110.3,94.1L1110,95.7L1108.8,95.9L1108.5,94.5L1108.9,93.3L1109.9,93.1L1109.9,91.1L1110,90L1111.4,91.3L1112.3,91.6ZM1101.4,108.1L1102,107.3L1102.7,107.4L1103.1,106.8L1104,107L1104.2,107.5L1103.6,108.4L1103.1,108L1102.5,108.3L1102.2,109.2L1101.4,108.8ZM1029.2,62.5L1029.2,62.5L1029.4,62.4L1029.3,62.9L1029.5,63.3L1029.2,63.2L1029,63.4L1029,63.5L1028.7,63.2L1028.9,62.7L1029.2,62.2Z" fill="#e2ddd1"/>
<path d="M1094.1,102.1L1094.2,102L1094.7,102.1L1095.1,101.4L1095.9,101.3L1096.4,101.3L1096.5,100.9L1097.5,102.6L1097.8,103.5L1097.9,105.2L1097.4,105.9L1096.4,106.2L1095.4,106.8L1094.4,106.9L1094.2,106.2L1094.5,105.1L1094,103.6L1094.8,103.4Z" fill="#3a5f8f"/>
<path d="M1039.2,54L1039.4,53.9L1039.1,54.5L1039.1,54.7L1038.9,55L1038.8,55.1L1038.8,55.1L1038.5,55.6L1038.5,56.2L1038.2,56.3L1038,55.8L1037.5,55.5L1037.8,55L1038.2,54.7L1038.6,53.9L1038.8,53.8L1039,54.1Z" fill="#e2ddd1" opacity="0.6"/>
<path d="M1096,186L1093.1,186L1090.3,185.8L1087.4,185.6L1084.6,185.2L1081.8,184.8L1079,184.2L1076.2,183.6L1073.4,182.8L1070.7,182L1068,181.1L1065.3,180L1062.6,178.9L1060.1,177.7L1057.5,176.4L1055,175L1052.5,173.5L1050.1,172L1047.8,170.3L1045.5,168.6L1043.3,166.8L1041.1,164.9L1039,163L1037,161L1035.1,158.9L1033.2,156.7L1031.4,154.5L1029.7,152.2L1028,149.9L1026.5,147.5L1025,145L1023.6,142.5L1022.3,139.9L1021.1,137.4L1020,134.7L1018.9,132L1018,129.3L1017.2,126.6L1016.4,123.8L1015.8,121L1015.2,118.2L1014.8,115.4L1014.4,112.6L1014.2,109.7L1014,106.9L1014,104L1014,101.1L1014.2,98.3L1014.4,95.4L1014.8,92.6L1015.2,89.8L1015.8,87L1016.4,84.2L1017.2,81.4L1018,78.7L1018.9,76L1020,73.3L1021.1,70.6L1022.3,68.1L1023.6,65.5L1025,63L1026.5,60.5L1028,58.1L1029.7,55.8L1031.4,53.5L1033.2,51.3L1035.1,49.1L1037,47L1039,45L1041.1,43.1L1043.3,41.2L1045.5,39.4L1047.8,37.7L1050.1,36L1052.5,34.5L1055,33L1057.5,31.6L1060.1,30.3L1062.6,29.1L1065.3,28L1068,26.9L1070.7,26L1073.4,25.2L1076.2,24.4L1079,23.8L1081.8,23.2L1084.6,22.8L1087.4,22.4L1090.3,22.2L1093.1,22L1096,22L1098.9,22L1101.7,22.2L1104.6,22.4L1107.4,22.8L1110.2,23.2L1113,23.8L1115.8,24.4L1118.6,25.2L1121.3,26L1124,26.9L1126.7,28L1129.4,29.1L1131.9,30.3L1134.5,31.6L1137,33L1139.5,34.5L1141.9,36L1144.2,37.7L1146.5,39.4L1148.7,41.2L1150.9,43.1L1153,45L1155,47L1156.9,49.1L1158.8,51.3L1160.6,53.5L1162.3,55.8L1164,58.1L1165.5,60.5L1167,63L1168.4,65.5L1169.7,68.1L1170.9,70.6L1172,73.3L1173.1,76L1174,78.7L1174.8,81.4L1175.6,84.2L1176.2,87L1176.8,89.8L1177.2,92.6L1177.6,95.4L1177.8,98.3L1178,101.1L1178,104L1178,106.9L1177.8,109.7L1177.6,112.6L1177.2,115.4L1176.8,118.2L1176.2,121L1175.6,123.8L1174.8,126.6L1174,129.3L1173.1,132L1172,134.7L1170.9,137.4L1169.7,139.9L1168.4,142.5L1167,145L1165.5,147.5L1164,149.9L1162.3,152.2L1160.6,154.5L1158.8,156.7L1156.9,158.9L1155,161L1153,163L1150.9,164.9L1148.7,166.8L1146.5,168.6L1144.2,170.3L1141.9,172L1139.5,173.5L1137,175L1134.5,176.4L1131.9,177.7L1129.4,178.9L1126.7,180L1124,181.1L1121.3,182L1118.6,182.8L1115.8,183.6L1113,184.2L1110.2,184.8L1107.4,185.2L1104.6,185.6L1101.7,185.8L1098.9,186L1096,186Z" fill="none" stroke="#9fb3c4" stroke-width="2"/>
</svg>
