<svg xmlns="http://www.w3.org/2000/svg" viewBox="0 0 1200 750" role="img" aria-labelledby="t">
<title id="t">Locator map: South Africa</title>
<defs><pattern id="hatch-c" width="9" height="9" patternUnits="userSpaceOnUse" patternTransform="rotate(45)"><rect width="9" height="9" fill="#f1ede4"/><rect width="4" height="9" fill="#1f7a6a"/></pattern><pattern id="hatch-n" width="9" height="9" patternUnits="userSpaceOnUse" patternTransform="rotate(45)"><rect width="9" height="9" fill="#f1ede4"/><rect width="3" height="9" fill="#b9b3a6"/></pattern></defs>
<rect width="1200" height="750" fill="#dbe7f0"/>
<path d="M130,750L117,669L85,443L58,216L35,0M451,750L445,639L425,186L419,0M769,750L775,638L794,185L799,0M1091,750L1103,667L1134,441L1161,214L1182,0M0,480L3,480L89,468L175,457L261,449L348,442L435,437L522,434L610,433L697,434L784,437L871,441L958,448L1044,456L1131,466L1200,476M0,71L42,65L136,55L230,46L324,40L419,35L514,32L609,31L704,32L799,34L894,39L988,45L1082,53L1176,64L1200,67" fill="none" stroke="#c9d9e6" stroke-width="1"/>
<path d="M1045,0L1045,0L1042,1L1041,0L1045,0ZM1039,0L1038,3L1036,3L1034,2L1028,4L1023,7L1015,13L1003,26L987,37L984,38L983,37L978,33L976,32L978,35L979,37L979,42L978,48L976,61L976,63L978,67L982,72L985,78L989,94L989,102L994,112L993,117L995,128L994,137L993,142L996,145L997,143L997,139L998,134L999,132L1001,132L1001,135L1002,137L1002,139L1002,142L999,153L999,158L1001,166L998,175L992,195L991,199L992,201L994,201L995,199L997,199L997,201L995,210L992,214L985,224L981,228L975,232L960,238L931,246L920,250L913,252L899,261L892,266L889,273L887,277L884,281L886,284L888,287L890,289L891,291L893,292L895,286L896,285L897,285L896,291L893,315L893,315L891,324L885,339L883,345L877,369L870,381L867,385L857,394L855,395L852,396L848,397L832,414L826,422L820,434L814,441L806,455L799,466L792,476L781,490L776,494L772,496L763,504L751,516L741,528L727,541L719,546L706,557L703,559L689,569L680,576L664,583L658,585L643,583L637,584L632,588L631,595L629,596L626,596L616,593L610,593L607,597L604,601L596,602L583,597L566,594L563,594L555,598L552,598L541,598L534,596L528,596L524,598L518,599L503,611L495,611L488,613L485,613L479,612L476,612L473,613L469,615L461,616L458,618L445,630L442,630L439,629L432,629L424,624L421,624L421,622L422,619L420,617L418,616L415,617L414,614L409,614L407,615L405,615L404,612L404,611L404,608L403,605L401,604L400,604L396,604L394,604L393,605L392,608L392,615L390,613L388,609L387,604L388,599L391,597L391,593L390,590L385,582L383,578L380,576L376,570L373,568L372,564L369,561L368,555L369,552L371,550L374,553L377,551L381,547L383,541L383,532L382,526L377,511L375,507L367,497L357,483L344,460L338,447L327,419L319,404L309,390L307,389L307,389L303,386L291,375L286,372L280,365L265,343L262,338L259,327L255,319L254,314L256,311L254,308L253,305L248,301L245,286L241,277L241,269L239,262L239,258L239,249L236,240L230,230L224,217L223,211L222,194L221,188L220,180L217,172L216,168L217,164L218,165L220,165L220,161L220,156L217,146L211,137L197,121L193,114L191,109L174,88L167,73L161,60L156,54L131,12L125,5L118,0L1039,0Z" fill="#f1ede4"/>
<path d="M772,122L773,122L783,120L792,122L803,127L813,129L822,128L830,128L836,129L840,130L844,133L844,135L844,136L845,142L848,150L849,158L851,169L851,175L851,177L853,180L856,185L856,188L857,190L860,194L862,200L863,208L864,212L865,214L865,217L865,224L865,232L864,242L864,249L863,253L863,264L860,270L860,274L861,277L860,278L858,278L850,273L842,268L841,268L839,268L834,271L830,277L828,281L824,286L819,294L818,295L818,302L818,308L818,309L821,309L823,314L827,322L834,328L841,330L851,331L858,332L858,326L859,318L861,312L862,312L864,312L865,313L868,313L873,315L878,315L882,315L889,315L893,315L891,324L885,339L883,345L877,369L870,381L867,385L857,394L855,395L852,396L848,397L832,414L826,422L820,434L814,441L806,455L799,466L792,476L781,490L776,494L772,496L763,504L751,516L741,528L727,541L719,546L706,557L703,559L689,569L680,576L664,583L658,585L643,583L637,584L632,588L631,595L629,596L626,596L616,593L610,593L607,597L604,601L596,602L583,597L566,594L563,594L555,598L552,598L541,598L534,596L528,596L524,598L518,599L503,611L495,611L488,613L485,613L479,612L476,612L473,613L469,615L461,616L458,618L445,630L442,630L439,629L432,629L424,624L421,624L421,622L422,619L420,617L418,616L415,617L414,614L409,614L407,615L405,615L404,612L404,611L404,608L403,605L401,604L400,604L396,604L394,604L393,605L392,608L392,615L390,613L388,609L387,604L388,599L391,597L391,593L390,590L385,582L383,578L380,576L376,570L373,568L372,564L369,561L368,555L369,552L371,550L374,553L377,551L381,547L383,541L383,532L382,526L377,511L375,507L367,497L357,483L344,460L338,447L327,419L319,404L309,390L307,389L309,387L313,383L316,382L317,383L318,382L319,379L319,377L319,374L320,372L321,368L323,366L327,364L331,366L332,368L333,370L335,371L337,371L339,373L340,376L340,379L339,380L339,382L341,384L342,387L343,390L349,391L352,392L357,392L362,393L366,395L374,396L384,394L392,394L399,396L404,396L407,394L408,392L407,389L409,387L412,387L415,384L416,381L421,378L428,375L432,375L432,369L431,351L430,333L429,316L429,298L428,280L427,262L426,244L426,227L427,228L439,237L443,241L444,244L450,255L454,264L457,272L457,275L458,278L458,280L458,282L456,286L454,289L452,293L452,299L453,305L454,308L456,309L461,308L464,308L468,309L482,308L484,308L489,308L491,308L492,306L494,302L495,301L498,300L502,299L505,297L509,289L518,282L521,280L522,279L524,276L527,267L529,260L530,257L532,251L535,248L537,246L538,245L542,244L546,243L551,244L555,246L561,250L567,254L569,256L572,257L577,258L580,258L585,262L588,262L593,263L600,265L605,265L609,262L613,262L617,262L622,262L625,261L628,259L631,256L633,250L635,244L637,238L640,229L642,223L643,222L647,220L651,219L660,217L662,215L664,213L669,208L674,204L677,202L682,183L683,180L686,175L689,173L690,173L692,172L695,169L698,168L702,167L704,165L705,162L707,161L710,161L711,160L712,158L714,157L716,155L718,154L718,152L722,147L729,140L735,137L741,136L747,135L752,132L756,129L759,125L763,122ZM740,439L746,437L748,435L750,434L753,432L754,428L754,424L756,422L758,420L760,418L762,413L764,409L764,407L763,404L762,402L761,399L759,399L757,397L753,393L749,390L746,386L744,385L741,382L740,381L739,379L738,378L736,378L732,379L724,382L718,385L714,389L709,390L706,392L703,396L701,400L698,403L697,405L696,406L695,408L692,412L690,415L687,416L683,418L682,419L681,420L683,424L684,427L686,432L688,435L690,438L692,440L691,444L692,445L693,447L693,447L694,448L696,449L697,450L698,451L700,453L702,456L705,458L710,460L714,460L716,460L717,458L718,456L719,453L720,451L725,444L728,441L729,441L732,440L734,440L736,440L737,440Z" fill="#1f7a6a"/>
<path d="M844,133L840,130L836,129L830,128L822,128L813,129L803,127L792,122L783,120L773,122L772,122L770,120L768,117L763,116L761,115L760,114L760,113L759,111L760,106L760,105L759,105L756,104L750,101L742,99L729,96L723,95L722,94L721,92L718,86L716,83L711,76L710,74L710,70L711,66L711,63L711,59L711,56L711,53L710,52L708,51L703,51L695,51L695,47L695,41L693,37L692,35L688,33L682,31L673,27L665,21L656,14L653,12L650,6L648,0M905,0L906,0L908,2L909,4L908,5L908,9L905,15L907,22L909,26L912,32L913,35L913,37L912,39L907,48L903,54L899,60L893,63L892,65L891,67L891,72L891,77L886,84L888,91L888,91L886,92L879,99L872,106L867,111L861,117L855,123L849,129L844,133L844,135L844,136L845,142L848,150L849,158L851,169L851,175L851,177L853,180L856,185L856,188L857,190L860,194L862,200L863,208L864,212L865,214L865,217L865,224L865,232L864,242L864,249L863,253L863,264L860,270L860,274L861,277L862,278L865,280L865,284L864,288L864,291L864,293L865,297L865,300L865,313L864,312L862,312L861,312L859,318L858,326L858,332L851,331L841,330L834,328L827,322L823,314L821,309L818,309L818,308L818,302L818,295L819,294L824,286L828,281L830,277L834,271L839,268L841,268L842,268L850,273L858,278L860,278L861,277M865,313L868,313L873,315L878,315L882,315L889,315L893,315M307,389L309,387L313,383L316,382L317,383L318,382L319,379L319,377L319,374L320,372L321,368L323,366L327,364L331,366L332,368L333,370L335,371L337,371L339,373L340,376L340,379L339,380L339,382L341,384L342,387L343,390L349,391L352,392L357,392L362,393L366,395L374,396L384,394L392,394L399,396L404,396L407,394L408,392L407,389L409,387L412,387L415,384L416,381L421,378L428,375L432,375L432,369L431,351L430,333L429,316L429,298L428,280L427,262L426,244L426,227L427,228L439,237L443,241L444,244L450,255L454,264L457,272L457,275L458,278L458,280L458,282L456,286L454,289L452,293L452,299L453,305L454,308L456,309L461,308L464,308L468,309L482,308L484,308L489,308L491,308L492,306L494,302L495,301L498,300L502,299L505,297L509,289L518,282L521,280L522,279L524,276L527,267L529,260L530,257L532,251L535,248L537,246L538,245L542,244L546,243L551,244L555,246L561,250L567,254L569,256L572,257L577,258L580,258L585,262L588,262L593,263L600,265L605,265L609,262L613,262L617,262L622,262L625,261L628,259L631,256L633,250L635,244L637,238L640,229L642,223L643,222L647,220L651,219L660,217L662,215L664,213L669,208L674,204L677,202L682,183L683,180L686,175L689,173L690,173L692,172L695,169L698,168L702,167L704,165L705,162L707,161L710,161L711,160L712,158L714,157L716,155L718,154L718,152L722,147L729,140L735,137L741,136L747,135L752,132L756,129L759,125L763,122L772,122M740,439L746,437L748,435L750,434L753,432L754,428L754,424L756,422L758,420L760,418L762,413L764,409L764,407L763,404L762,402L761,399L759,399L757,397L753,393L749,390L746,386L744,385L741,382L740,381L739,379L738,378L736,378L732,379L724,382L718,385L714,389L709,390L706,392L703,396L701,400L698,403L697,405L696,406L695,408L692,412L690,415L687,416L683,418L682,419L681,420L683,424L684,427L686,432L688,435L690,438L692,440L691,444L692,445L693,447L693,447L694,448L696,449L697,450L698,451L700,453L702,456L705,458L710,460L714,460L716,460L717,458L718,456L719,453L720,451L725,444L728,441L729,441L732,440L734,440L736,440L737,440L740,439M455,0L455,7L456,23L456,40L457,56L457,72L458,89L458,105L459,112L458,114L453,114L440,114L430,115L421,115L422,125L422,137L422,148L423,160L423,171L424,183L424,194L425,206L425,217L426,226L426,227" fill="none" stroke="#ffffff" stroke-width="1.6" stroke-linejoin="round"/>
<path d="M772,122L773,122L783,120L792,122L803,127L813,129L822,128L830,128L836,129L840,130L844,133L844,135L844,136L845,142L848,150L849,158L851,169L851,175L851,177L853,180L856,185L856,188L857,190L860,194L862,200L863,208L864,212L865,214L865,217L865,224L865,232L864,242L864,249L863,253L863,264L860,270L860,274L861,277L860,278L858,278L850,273L842,268L841,268L839,268L834,271L830,277L828,281L824,286L819,294L818,295L818,302L818,308L818,309L821,309L823,314L827,322L834,328L841,330L851,331L858,332L858,326L859,318L861,312L862,312L864,312L865,313L868,313L873,315L878,315L882,315L889,315L893,315L891,324L885,339L883,345L877,369L870,381L867,385L857,394L855,395L852,396L848,397L832,414L826,422L820,434L814,441L806,455L799,466L792,476L781,490L776,494L772,496L763,504L751,516L741,528L727,541L719,546L706,557L703,559L689,569L680,576L664,583L658,585L643,583L637,584L632,588L631,595L629,596L626,596L616,593L610,593L607,597L604,601L596,602L583,597L566,594L563,594L555,598L552,598L541,598L534,596L528,596L524,598L518,599L503,611L495,611L488,613L485,613L479,612L476,612L473,613L469,615L461,616L458,618L445,630L442,630L439,629L432,629L424,624L421,624L421,622L422,619L420,617L418,616L415,617L414,614L409,614L407,615L405,615L404,612L404,611L404,608L403,605L401,604L400,604L396,604L394,604L393,605L392,608L392,615L390,613L388,609L387,604L388,599L391,597L391,593L390,590L385,582L383,578L380,576L376,570L373,568L372,564L369,561L368,555L369,552L371,550L374,553L377,551L381,547L383,541L383,532L382,526L377,511L375,507L367,497L357,483L344,460L338,447L327,419L319,404L309,390L307,389L309,387L313,383L316,382L317,383L318,382L319,379L319,377L319,374L320,372L321,368L323,366L327,364L331,366L332,368L333,370L335,371L337,371L339,373L340,376L340,379L339,380L339,382L341,384L342,387L343,390L349,391L352,392L357,392L362,393L366,395L374,396L384,394L392,394L399,396L404,396L407,394L408,392L407,389L409,387L412,387L415,384L416,381L421,378L428,375L432,375L432,369L431,351L430,333L429,316L429,298L428,280L427,262L426,244L426,227L427,228L439,237L443,241L444,244L450,255L454,264L457,272L457,275L458,278L458,280L458,282L456,286L454,289L452,293L452,299L453,305L454,308L456,309L461,308L464,308L468,309L482,308L484,308L489,308L491,308L492,306L494,302L495,301L498,300L502,299L505,297L509,289L518,282L521,280L522,279L524,276L527,267L529,260L530,257L532,251L535,248L537,246L538,245L542,244L546,243L551,244L555,246L561,250L567,254L569,256L572,257L577,258L580,258L585,262L588,262L593,263L600,265L605,265L609,262L613,262L617,262L622,262L625,261L628,259L631,256L633,250L635,244L637,238L640,229L642,223L643,222L647,220L651,219L660,217L662,215L664,213L669,208L674,204L677,202L682,183L683,180L686,175L689,173L690,173L692,172L695,169L698,168L702,167L704,165L705,162L707,161L710,161L711,160L712,158L714,157L716,155L718,154L718,152L722,147L729,140L735,137L741,136L747,135L752,132L756,129L759,125L763,122ZM740,439L746,437L748,435L750,434L753,432L754,428L754,424L756,422L758,420L760,418L762,413L764,409L764,407L763,404L762,402L761,399L759,399L757,397L753,393L749,390L746,386L744,385L741,382L740,381L739,379L738,378L736,378L732,379L724,382L718,385L714,389L709,390L706,392L703,396L701,400L698,403L697,405L696,406L695,408L692,412L690,415L687,416L683,418L682,419L681,420L683,424L684,427L686,432L688,435L690,438L692,440L691,444L692,445L693,447L693,447L694,448L696,449L697,450L698,451L700,453L702,456L705,458L710,460L714,460L716,460L717,458L718,456L719,453L720,451L725,444L728,441L729,441L732,440L734,440L736,440L737,440Z" fill="none" stroke="#16554a" stroke-width="1.6" stroke-linejoin="round"/>
<circle cx="1096" cy="104" r="88" fill="#ffffff" opacity="0.9"/>
<path d="M1096,186L1093.1,186L1090.3,185.8L1087.4,185.6L1084.6,185.2L1081.8,184.8L1079,184.2L1076.2,183.6L1073.4,182.8L1070.7,182L1068,181.1L1065.3,180L1062.6,178.9L1060.1,177.7L1057.5,176.4L1055,175L1052.5,173.5L1050.1,172L1047.8,170.3L1045.5,168.6L1043.3,166.8L1041.1,164.9L1039,163L1037,161L1035.1,158.9L1033.2,156.7L1031.4,154.5L1029.7,152.2L1028,149.9L1026.5,147.5L1025,145L1023.6,142.5L1022.3,139.9L1021.1,137.4L1020,134.7L1018.9,132L1018,129.3L1017.2,126.6L1016.4,123.8L1015.8,121L1015.2,118.2L1014.8,115.4L1014.4,112.6L1014.2,109.7L1014,106.9L1014,104L1014,101.1L1014.2,98.3L1014.4,95.4L1014.8,92.6L1015.2,89.8L1015.8,87L1016.4,84.2L1017.2,81.4L1018,78.7L1018.9,76L1020,73.3L1021.1,70.6L1022.3,68.1L1023.6,65.5L1025,63L1026.5,60.5L1028,58.1L1029.7,55.8L1031.4,53.5L1033.2,51.3L1035.1,49.1L1037,47L1039,45L1041.1,43.1L1043.3,41.2L1045.5,39.4L1047.8,37.7L1050.1,36L1052.5,34.5L1055,33L1057.5,31.6L1060.1,30.3L1062.6,29.1L1065.3,28L1068,26.9L1070.7,26L1073.4,25.2L1076.2,24.4L1079,23.8L1081.8,23.2L1084.6,22.8L1087.4,22.4L1090.3,22.2L1093.1,22L1096,22L1098.9,22L1101.7,22.2L1104.6,22.4L1107.4,22.8L1110.2,23.2L1113,23.8L1115.8,24.4L1118.6,25.2L1121.3,26L1124,26.9L1126.7,28L1129.4,29.1L1131.9,30.3L1134.5,31.6L1137,33L1139.5,34.5L1141.9,36L1144.2,37.7L1146.5,39.4L1148.7,41.2L1150.9,43.1L1153,45L1155,47L1156.9,49.1L1158.8,51.3L1160.6,53.5L1162.3,55.8L1164,58.1L1165.5,60.5L1167,63L1168.4,65.5L1169.7,68.1L1170.9,70.6L1172,73.3L1173.1,76L1174,78.7L1174.8,81.4L1175.6,84.2L1176.2,87L1176.8,89.8L1177.2,92.6L1177.6,95.4L1177.8,98.3L1178,101.1L1178,104L1178,106.9L1177.8,109.7L1177.6,112.6L1177.2,115.4L1176.8,118.2L1176.2,121L1175.6,123.8L1174.8,126.6L1174,129.3L1173.1,132L1172,134.7L1170.9,137.4L1169.7,139.9L1168.4,142.5L1167,145L1165.5,147.5L1164,149.9L1162.3,152.2L1160.6,154.5L1158.8,156.7L1156.9,158.9L1155,161L1153,163L1150.9,164.9L1148.7,166.8L1146.5,168.6L1144.2,170.3L1141.9,172L1139.5,173.5L1137,175L1134.5,176.4L1131.9,177.7L1129.4,178.9L1126.7,180L1124,181.1L1121.3,182L1118.6,182.8L1115.8,183.6L1113,184.2L1110.2,184.8L1107.4,185.2L1104.6,185.6L1101.7,185.8L1098.9,186L1096,186Z" fill="#dbe7f0"/>
<path d="M1121.8,31L1122.4,31.5L1123.5,31.8L1124.4,32.3L1125.9,32.8L1127.4,33L1127.4,32.9L1126.9,32.4L1126.6,31.8L1125.7,31.4L1125.7,31.1L1125,30.9L1124.8,30.5L1125.9,30.8L1126.5,30.9L1125.6,30.4L1125,30L1124.4,29.9L1124.6,30.3L1124.1,29.9L1123.9,29.7L1123.9,29.6L1123.6,29.4L1122.4,28.9L1121.6,28.4L1120.9,28.2L1120.8,28L1121.7,28.3L1121.4,27.9L1122.1,28.1L1123,28.3L1122.7,27.9L1122.2,27.6L1121.3,27.4L1120.5,27.2L1119.7,27.1L1118.9,27L1118.8,27.2L1117.9,27.1L1117.4,27.3L1118.6,27.9L1118.8,28.2L1120.3,29L1121,29.4L1121.8,29.9L1122.2,30L1122.6,30.2L1121.9,30.1L1122,30.5L1121.9,30.6L1121.6,30.7ZM1090.8,22.2L1090.8,22.2L1091.4,22.1L1090.6,22.2L1089.8,22.3L1089.2,22.4L1088.6,22.6L1087.7,22.7L1087,22.8L1086.1,22.9L1086.1,22.8L1085.8,22.7L1085.6,22.7L1085.3,22.7L1083.5,23L1082.5,23.2L1081.7,23.3L1081.9,23.2L1081.9,23.2L1084.7,22.8L1087.6,22.4L1090.4,22.2ZM1175.9,85.5L1175.9,85.7L1175.9,85.7L1175.9,86.1L1175.8,86.4L1175.6,85.4L1175.5,84.8L1175.2,83.6L1174.9,82.8L1174.7,82L1174.2,80.4L1173.8,79.2L1173.5,78.7L1173.3,77.9L1173,77.3L1173.3,78.6L1173.5,79.9L1173.6,80.8L1173.8,81.7L1174.1,82.2L1174.4,83.5L1174.6,84.7L1174.9,85.8L1175.2,86.3L1175.4,87.3L1175.5,87.6L1175.8,88.7L1176,89.8L1176.1,90.7L1176.1,91.2L1176.1,91.7L1176.2,92.5L1176.3,93.1L1176.5,94.4L1176.5,94.8L1176.3,94.4L1176,92.9L1175.5,91.1L1175.5,90.4L1175.2,89.2L1175.1,88L1174.9,87.1L1174.8,86.3L1174.7,85.6L1174.5,84.9L1174.3,84.2L1174,83.2L1173.7,82.3L1173.8,82.9L1173.6,82.1L1173.5,81.4L1173.4,80.4L1173.2,79.5L1173.1,78.8L1172.8,77.8L1172.5,76.6L1172.2,75.7L1171.6,74.1L1171.1,72.6L1170.6,71.4L1170.5,71.5L1170.3,71.6L1170,71.2L1169.6,70.5L1169.3,69.3L1168.8,68.1L1167.9,66.4L1167.8,66.1L1167.5,65.6L1166.7,64.3L1166.3,63.5L1166,63L1165.7,62.3L1165.2,61.5L1164.7,60.9L1164.9,61.4L1165,61.8L1164.7,61.3L1164.7,61.4L1164.5,61.1L1164.2,60.8L1164.3,61.1L1163.9,60.7L1163.2,60.2L1163.6,61.1L1163.5,61.4L1162.9,61.3L1162.6,61.9L1162.3,62.2L1161.8,62.3L1161.9,62.8L1161.6,62.8L1161.1,62.7L1160.7,62.5L1160.7,63.2L1161.3,64.7L1161.5,65.7L1161.4,66.6L1161.8,68.5L1161.4,68.3L1161.2,68.9L1161.5,69.5L1160.8,69.3L1160.6,69.9L1160.3,70L1159.3,68.4L1158.6,66.5L1158.1,65.2L1157.7,64.5L1157,63.1L1156.4,61.6L1156.1,60.8L1154.9,58.9L1153.9,56.6L1153.2,55.1L1152.8,53.9L1152.2,52.9L1151.1,52.8L1150.4,52.3L1148.8,50.5L1149.1,50.4L1148.6,49.9L1147.2,48.6L1146.4,48L1145.8,47.2L1144.8,46.2L1143,45.6L1141.4,45L1140,44.6L1137.9,43.7L1136.6,43.1L1135.4,42.6L1134.5,41.4L1133.9,41.1L1133.1,41L1132.2,41.1L1130.7,40.4L1129.3,39.5L1128.2,39L1127.1,38.1L1125.9,36.8L1125.3,36.8L1124.5,36.4L1124.2,36.6L1123.5,36.4L1123.9,36.8L1123.8,37L1124.4,37.7L1125.1,38.4L1125.7,38.7L1126,39.1L1126.9,39.6L1127.1,40L1127.1,40.2L1127.3,40.5L1127.7,40.9L1128,41.2L1128.2,41.4L1127.9,40.8L1128.1,40.4L1128.4,40.4L1128.8,40.7L1129,41.3L1128.9,41.7L1129.2,42.1L1129.4,42.1L1129.5,42.4L1130.4,42.4L1131.4,42.7L1132.1,42.9L1132.7,42.5L1133.3,42.2L1133.8,41.9L1134,41.7L1134.2,41.8L1134.2,42.1L1134.1,42.2L1134.5,43L1135.2,43.7L1136,44.2L1136.8,44.6L1137.5,45L1138.2,45.7L1138.6,46.1L1139,46.3L1139.1,46.5L1138.9,47L1138.8,47.2L1138.4,47.3L1138.2,47.8L1137.7,47.6L1137.5,47.8L1137.4,48.2L1137.8,48.9L1137.7,49L1137.1,48.9L1136.5,49L1136.5,49.5L1136.3,49.6L1135.6,49.4L1135.2,49.5L1135.3,49.9L1134.7,50.1L1134.1,49.8L1133.3,49.9L1132.8,49.8L1132,49.9L1131.8,50.3L1131.8,50.6L1130.7,50.8L1128.7,50.8L1127.7,51.3L1127.2,51.2L1126.8,51.1L1126.1,51.4L1125.3,51.4L1124.2,51.3L1123.9,51.3L1123.6,51.5L1123.3,51.5L1123.1,51.8L1122.4,51.6L1122,51.7L1121.1,51.5L1120.7,50.8L1120.7,50.3L1120.4,49.9L1120.1,49.1L1119.7,48.6L1119.9,48.6L1119.7,48.1L1119.9,47.9L1119.8,47.5L1119.6,47L1119.1,46.7L1119,46.2L1118.3,45.8L1117.5,44.9L1117,44L1116,43.3L1115.4,43L1114.4,42L1114.2,41.4L1114.2,40.9L1113.3,39.8L1112.6,39.4L1111.9,39.1L1111.4,38.6L1111.5,38.4L1111,37.9L1110.6,37.7L1110.1,37L1109.2,36.3L1108.5,35.7L1107.9,35.7L1108,35.3L1108,35L1108.1,34.7L1108.1,34.6L1107.8,34.9L1107.6,35.4L1107.3,35.8L1107,35.9L1106.6,35.6L1106,35.3L1105,34.1L1104.8,34.2L1105.4,35L1106.3,35.8L1107.4,37.2L1107.9,37.7L1108.4,38.2L1109.7,39.2L1109.4,39.3L1109.5,39.9L1111.1,40.9L1111.4,41.1L1111.9,42L1111.6,42.1L1111.9,43.1L1112.5,44.3L1113.1,44.6L1113.8,45.1L1114.7,46.3L1115.2,47.3L1116,47.9L1117.9,49.1L1118.7,49.8L1119.4,50.5L1119.9,50.9L1120.6,51.4L1120.9,51.7L1120.9,52.2L1120.2,52.3L1120.8,52.7L1121.2,53L1121.5,53.5L1122.2,54L1122.8,54.2L1124,54.1L1125.5,54.2L1126.6,54.1L1127.2,54.2L1127.7,54.1L1128.4,54.2L1128.8,54.2L1129.4,54.2L1130,54.2L1130.6,54L1131.1,54.1L1131.1,54.4L1131.1,55L1131.1,55.6L1130.9,56L1130.7,57.1L1130.2,58.2L1129.5,59.5L1128.4,61L1127.4,62.1L1125.8,63.5L1124.5,64.2L1122.5,65.1L1121.3,65.8L1119.8,67.1L1119.4,67.8L1119.1,68L1118.2,68.4L1117.8,68.9L1117.3,68.9L1117.1,69.8L1116.6,70.3L1116.4,71.1L1115.8,71.4L1115.8,71.4L1115.1,73L1115.2,73.7L1116,74.3L1116.1,74.7L1115.7,75.4L1115.7,75.8L1115.6,76.5L1116.1,77.4L1116.6,78.8L1117,79.1L1117.2,79.8L1117.1,81.1L1117.2,82.3L1117.1,84.5L1117.3,85.2L1116.8,86.1L1116.3,87L1115.3,87.8L1114.1,88.2L1112.5,88.7L1110.9,90L1110.4,90.2L1109.4,91.2L1108.9,91.4L1108.7,92.4L1109.3,93.6L1109.5,94.4L1109.4,94.8L1109.7,94.8L1109.5,96.2L1109.3,96.8L1109.6,97.1L1109.3,97.6L1108.8,98.1L1107.7,98.5L1106.1,99.2L1105.5,99.7L1105.6,100.3L1105.9,100.4L1105.7,101.1L1105.4,102.1L1105.1,103.3L1104.8,103.9L1103.9,104.6L1103.6,104.8L1103.1,105.5L1102.7,106.2L1101.9,107.2L1100.5,108.6L1099.6,109.5L1098.7,110.1L1097.5,110.6L1096.9,110.7L1096.7,111.1L1096,110.9L1095.4,111.2L1094.1,110.9L1093.4,111.1L1092.9,111L1091.7,111.6L1090.7,111.9L1090,112.5L1089.5,112.5L1088.9,112L1088.5,112L1088,111.4L1087.9,111.6L1087.8,111.2L1087.7,110.4L1087.3,109.5L1087.6,109.2L1087.5,108.1L1086.6,106.8L1086,105.6L1085.9,105.6L1084.9,103.9L1083.9,102.8L1083.3,101.8L1083,100.5L1082.6,99.5L1082,97.3L1081.8,95.6L1081.6,94.9L1081,94.3L1080.3,93.2L1079.5,91.6L1079.1,90.8L1077.9,89.5L1077.8,88.5L1077.6,87.6L1077.7,86.4L1078.1,85L1078.1,84.4L1078.5,83.1L1078.8,82.5L1079.5,81.6L1079.9,80.9L1080,79.9L1079.9,79.1L1079.5,78.7L1079.1,77.9L1078.7,77.1L1078.8,76.8L1079.2,76.3L1078.7,75L1078.4,74.2L1077.7,73.4L1077.8,73.1L1077.6,72.7L1077.2,71.8L1076.1,70.5L1074.6,69.4L1073.7,68.5L1072.9,67.3L1072.9,66.9L1073.2,66.4L1073.5,65.5L1073.8,64.5L1073.6,64.4L1074,62.9L1074.3,61.9L1073.7,61.2L1073.1,61.1L1072.9,60.6L1072.5,60.5L1072.5,60.1L1071.1,60.8L1070.6,60.8L1070.1,61.1L1069,61.3L1068.3,60.7L1067.9,59.9L1067,59.3L1066,59.5L1064.8,59.7L1063.7,60.1L1062.7,60.5L1060.6,61.7L1059.9,62.3L1058.7,62.9L1057.6,62.8L1057,63L1056.2,63L1055.4,63.2L1053.9,63.8L1053,64.4L1051.8,65.2L1051.6,65.3L1051.3,65.4L1050.1,65.2L1049.1,64.7L1048.1,64.4L1047.4,63.9L1047.1,63.9L1046.3,63.7L1045.8,63.3L1045.7,63L1045.6,62.2L1045.2,61.7L1044.9,61.4L1044.6,61.4L1044.4,61.2L1044.3,60.8L1044.2,60.6L1043.9,60.5L1043.4,60.3L1043,60.4L1042.8,60.2L1042.8,60L1042.6,59.9L1042.5,59.7L1042.5,59L1042.8,58.4L1042.5,57.7L1042.1,57.6L1042.6,57.2L1043.3,56.2L1043.6,55.6L1043.7,55L1044.1,54.4L1044.5,53.4L1044.7,52.4L1044.7,51.9L1045,51.4L1044.9,51L1044.5,50.8L1044.7,50.4L1044.9,49.9L1045.4,49.5L1045.9,48.9L1046,48.6L1046.6,47.8L1047.4,46.9L1047.8,46.7L1048.3,46L1048.5,45.5L1049.1,44.8L1049.9,44.2L1050.9,43.1L1051,43.1L1051.6,42.6L1052.6,42.1L1053.7,41.3L1054.3,40.9L1055.5,39.9L1055.8,39L1056.5,38.2L1056.9,37.8L1057.8,37.1L1059,36.4L1059.9,35.9L1061,35L1061.6,34.5L1062.3,34.3L1062.8,34.4L1063.8,34.1L1064.7,34L1065.2,33.8L1066.4,33.2L1067.6,32.9L1068.4,32.4L1069.5,32L1071.4,31.6L1073.2,31.2L1073.7,31.2L1074.8,30.8L1075.9,30.6L1076.3,30.6L1077.1,30.5L1078.4,30.1L1079.1,30L1079,30.4L1080,30L1080,30.1L1079.4,30.5L1079.3,30.8L1079.6,30.9L1079.3,31.4L1078.4,31.9L1078.5,32.2L1079.1,32.1L1079.3,32.4L1079.7,32.5L1081,32.6L1081.6,32.4L1082.5,32.5L1084,32.6L1084.5,33.2L1085.5,33.3L1087.2,33.4L1088.5,33.7L1089.1,33.5L1089.7,33.2L1089.5,32.6L1089.9,32.3L1090.8,31.9L1091.6,31.8L1093.2,31.9L1093.6,32.2L1094.1,32.2L1094.5,32.3L1095.7,32.4L1096,32.6L1097.6,32.6L1098.8,32.8L1100,33L1100.6,33.2L1101.5,33L1102,32.8L1103,32.8L1103.9,32.9L1104.3,33.3L1104.5,33.1L1105.5,33.3L1106.5,33.4L1107.1,33.3L1107.4,33.1L1107.3,33L1107.5,32.7L1107.7,32.2L1107.8,32.1L1107.9,32.1L1108.2,31.5L1108.6,31.1L1108.6,31.1L1108.4,30.6L1108.6,30.4L1108.1,30.1L1108.5,29.9L1107.8,29.9L1106.9,29.7L1106.2,29.9L1104.4,29.9L1103.5,29.5L1102.2,29.4L1102,29.7L1101.2,29.7L1100.1,29.4L1098.8,29.3L1098.1,28.7L1097.3,28.4L1097.8,28L1097.1,27.7L1098.3,27.3L1099.9,27.3L1100.4,26.9L1102.4,27.1L1103.6,26.8L1104.8,26.8L1106.5,26.9L1108.5,27.4L1110.1,27.8L1111.3,27.8L1112.2,28L1113.3,27.9L1113.3,27.7L1112.9,27.4L1112.2,27.1L1111.6,27L1111.2,26.8L1109.7,26.3L1108.5,26L1107.5,25.7L1108.2,25.7L1108.8,25.4L1108.2,25.2L1109.5,25.2L1109.4,25.1L1108.6,25.1L1107.8,25.1L1107.3,25.1L1106.4,25L1105.6,25.1L1105.8,25.3L1105.8,25.3L1106.3,25.5L1107.3,25.5L1107.2,25.7L1106.1,25.6L1104.9,25.8L1104.3,25.6L1104.4,25.5L1103.3,25.3L1103.4,25.2L1104.3,25.2L1104.2,25.1L1104,25.1L1102.5,24.9L1102.3,24.7L1101.5,24.7L1101.1,24.9L1100.4,25.2L1100.5,25.3L1100,25.3L1099.7,25.3L1099.5,25.8L1099,25.9L1098.6,26.2L1099,26.5L1099.1,26.7L1100.1,26.9L1099.9,27L1098.6,27L1098.2,27.1L1097.3,27.4L1096.9,27.2L1096.9,27L1096.3,27L1095.7,27L1094.4,27.1L1095.1,27.4L1094.6,27.5L1094,27.5L1093.4,27.2L1093.2,27.4L1093.4,27.7L1094,27.9L1093.5,28L1094.1,28.3L1094.7,28.4L1094.7,28.7L1093.7,28.6L1094,28.9L1093.3,29L1093.7,29.5L1092.9,29.5L1092,29.3L1091.6,28.8L1091.4,28.4L1091,28.2L1090.5,27.9L1090.5,27.8L1090.3,27.7L1090.3,27.6L1089.7,27.5L1089.6,27.3L1089.8,26.9L1090,26.8L1089.8,26.7L1089.6,26.7L1089.3,26.5L1088.9,26.5L1088,26.4L1087.4,26.2L1086.5,26.2L1085.8,25.9L1086,25.9L1085.6,25.7L1085.7,25.6L1085,25.6L1084.7,25.8L1084.4,25.7L1084.5,25.6L1084.6,25.6L1084.8,25.5L1084.1,25.5L1083.2,25.7L1083.1,25.9L1082.9,26.1L1083.1,26.2L1084,26.4L1084.3,26.7L1085.4,27L1086.2,26.9L1086.4,27L1086.1,27.1L1087,27.2L1087.7,27.3L1088.6,27.5L1088.7,27.6L1088.4,27.8L1087.9,27.6L1087,27.6L1086.4,27.9L1087.2,28.1L1087,28.4L1086.5,28.4L1085.8,28.9L1085.3,29L1085.4,28.8L1085.7,28.5L1085.9,28.4L1085.6,28.1L1085.3,27.9L1084.9,27.9L1084.7,27.7L1084,27.6L1083.6,27.5L1082.9,27.5L1082.1,27.4L1081.3,27.2L1080.8,27L1080.7,26.6L1080.3,26.6L1079.5,26.6L1079.1,26.7L1078.3,27L1077.9,27.1L1076.8,27.5L1075,27.7L1073.5,28.1L1073.1,28.4L1073,28.7L1071.8,29.2L1070.5,29.6L1070.2,29.8L1069.4,30.3L1068.7,30.8L1068.9,31L1068.1,31.4L1067.7,31.9L1066.8,32.2L1065.8,32.9L1064.5,33.2L1063.6,33.4L1062.8,33.8L1062.2,34.2L1061.8,34.3L1061.6,34.2L1061.5,33.9L1060.7,34.1L1060.2,34.3L1059.8,34.4L1059.2,34.6L1059.8,34.1L1060,33.7L1059.6,33.8L1059.6,33.6L1060,33.2L1060.5,32.9L1060.8,32.6L1061.3,32.2L1061.5,32L1061.5,31.8L1061.7,31.7L1062.1,31.3L1062,31.1L1063.6,30.4L1064.6,30.1L1065.8,29.8L1066.6,29.6L1067.4,29.4L1068.9,29L1069.6,28.6L1070.7,27.7L1070.3,27.5L1069.9,27.4L1068.8,27.6L1069.1,27.4L1070.3,27L1071.6,26.7L1071.9,26.4L1072.4,26.4L1074.7,25.7L1075.4,25.4L1076.2,25.1L1076.9,25L1077.5,24.8L1078.8,24.3L1080,24L1080.7,23.9L1080.9,23.8L1081.6,23.7L1081.7,23.7L1082.4,23.6L1082.3,23.5L1082.5,23.4L1082.4,23.4L1082.7,23.2L1082.9,23.2L1083.2,23.1L1083.9,23L1084.3,22.9L1085,22.8L1084.8,22.9L1084.5,22.9L1084.5,23L1084.8,22.9L1084.5,23L1084.3,23L1083.5,23.2L1083.6,23.3L1083.5,23.3L1084.2,23.3L1084.1,23.3L1085,23.2L1085.5,23.1L1086.4,23.1L1086.7,23.1L1087.3,23L1088.7,22.8L1089.8,22.7L1090.6,22.7L1090.6,22.7L1091.4,22.7L1091.6,22.6L1092.8,22.5L1092.7,22.4L1092.8,22.3L1093.2,22.2L1094,22.2L1094.5,22.2L1095.2,22.2L1095.3,22.1L1095.4,22.1L1095.1,22.1L1094.7,22.1L1094.6,22.1L1095.6,22L1096.5,22L1097.3,22L1098,22.1L1098.8,22.1L1098,22L1096.8,22L1095.5,22L1094.3,22L1093.9,22L1093.3,22L1093.4,22L1093.4,22L1096.2,22L1099.1,22.1L1101.9,22.2L1104.8,22.5L1107.6,22.8L1110.5,23.3L1113.3,23.8L1116,24.5L1118.8,25.2L1121.5,26.1L1124.2,27L1126.9,28.1L1129.5,29.2L1132.1,30.4L1134.7,31.7L1137.2,33.1L1139.6,34.6L1142,36.1L1144.4,37.8L1146.7,39.5L1148.9,41.3L1151,43.2L1153.1,45.2L1155.1,47.2L1157.1,49.3L1159,51.5L1160.7,53.7L1162.5,56L1164.1,58.3L1165.7,60.7L1167.1,63.2L1168.5,65.7L1169.8,68.2L1171,70.8L1172.1,73.5L1173.1,76.2L1174.1,78.9L1174.9,81.6L1175.6,84.4ZM1015.2,90.1L1015.2,90.1L1015.2,90.1L1015.2,90.5L1015.1,91.1L1015.1,90.9L1015.2,91.1L1015.2,91.3L1015.4,90.7L1015.4,90.4L1015.6,89.8L1015.9,89.4L1015.9,89.3L1016.1,89.1L1016.3,89.4L1016.4,89.8L1016.5,89.5L1016.5,90L1016.6,91.8L1016.8,91.7L1016.8,92.5L1016.5,94L1016.6,94.2L1017.3,93.2L1017.3,94.5L1017.6,93.1L1018.1,92.7L1018.9,92.4L1019.2,92.8L1019.1,93.7L1019.7,92.5L1020.8,91.9L1021.7,90.9L1022.6,91.1L1023.6,91.7L1024.1,91.6L1024.7,91.1L1025,91.3L1025.4,92.7L1025.6,93.4L1025.6,95.8L1025.4,96.9L1024.8,99.6L1024.7,101.4L1024.4,103L1024.3,103.2L1024.3,104.3L1025,106.7L1025.4,108.8L1025.6,109.7L1025.6,110.4L1026,112.2L1026,114.5L1026.4,115.9L1026.2,116.9L1026.4,117.8L1025.9,118.5L1025.3,119.9L1025.3,120.8L1024.9,121.9L1024.9,123.6L1025.2,125.3L1025.6,126.3L1026,126.8L1026.6,128.1L1026.8,128.9L1026.9,129.9L1027.8,132.6L1028.1,134.1L1028.3,135L1028.9,136.3L1029.2,137.3L1029.6,138.3L1029.8,139.5L1029.5,139.7L1029.5,140.1L1029,140.2L1028.9,140.6L1028.4,140.4L1028.8,141L1029.7,141.2L1030.2,142L1030.7,142.1L1031.1,142.6L1032,144.5L1032.3,145.9L1032.3,147.2L1032.2,147.6L1032.7,148.1L1033.4,149L1033.9,149.4L1034.2,150L1034.3,150.7L1033.9,150.8L1034.2,151.3L1035.1,152.1L1035.4,152.1L1035.1,151.5L1035.6,151.8L1035.9,152.6L1036.5,153.6L1037.5,154.5L1038.1,155.1L1038.1,155.6L1038.6,156.4L1039.4,157.2L1040.1,157.3L1040.3,157.1L1041.3,158L1041.9,159L1043.2,160.2L1043.7,160.9L1044.2,161.4L1045.4,162.1L1046,162.2L1046,162.4L1046,162.7L1046.3,163.1L1046.8,163.7L1047.9,164.4L1048,164.6L1047.7,164.9L1047.1,164.9L1046.6,165L1045.9,164.7L1045.3,164.2L1044.6,163.9L1042.8,162.8L1041.7,161.9L1040.8,160.8L1040.7,161.3L1039.6,160.2L1037.9,158.7L1038.1,158.4L1036,156.4L1035.9,156.5L1037.1,157.7L1037.1,157.9L1035.7,156.6L1033.9,154.8L1033.2,153.9L1032.4,153.2L1031.4,152.2L1031.3,151.9L1029.9,150L1028.5,148.1L1027.2,146.3L1026.2,144.9L1025.5,143.9L1024.7,142.7L1023.8,141L1022.5,138.8L1021.2,136.3L1020,133.6L1019.2,131.7L1018.5,130.2L1018.4,130.2L1018.3,129.8L1018.2,129.9L1018.2,129.9L1018.2,129.9L1017.3,127.2L1016.6,124.4L1015.9,121.6L1015.4,118.8L1014.9,116L1014.5,113.2L1014.2,110.3L1014.1,107.5L1014,104.6L1014,101.7L1014.2,98.9L1014.4,96L1014.7,93.2L1015.1,90.3ZM1177.9,108L1177.9,108L1177.8,109.7L1177.8,109.1L1177.8,108.9L1177.8,107.9L1177.8,107.3L1177.8,106.6L1177.7,106.2L1177.7,105.3L1177.7,105L1177.6,104.2L1177.6,102.4L1177.6,101.8L1177.5,100.4L1177.5,99.2L1177.5,98.1L1177.6,97.7L1177.7,98.6L1177.8,98.9L1177.7,98L1177.8,98L1177.8,98.6L1177.8,98.4L1177.8,98.4L1178,101.3L1178,104.1L1177.9,107ZM1176.4,120.3L1176.7,118.5L1176.6,118.9L1176.5,119.6L1176.4,120.2L1176.3,120.5ZM1176.7,118.4L1176.8,118.2L1176.8,117.8L1176.8,117.8ZM1177,116.5L1177,116.9L1176.9,117.6L1176.9,117L1176.9,116.7L1177,116.3L1177.1,115.8L1177,116.2L1177.1,116ZM1176.9,107.4L1176.9,108L1177.1,109.4L1177.2,109L1177.3,110.9L1177.2,112L1177.2,113.2L1177.1,114.8L1177,114.5L1177.1,113.2L1177,112.6L1177,111.8L1176.9,111L1176.8,109.7L1176.7,109.1L1176.7,109L1176.4,107.2L1176.4,106.5L1176.2,105.8L1176.5,105.1L1176.8,106L1176.9,107ZM1176.5,97.9L1176.5,98.9L1176.6,99.8L1176.8,100.4L1176.9,101.6L1176.7,103L1176.5,104.9L1176.2,104.2L1176.1,102.5L1175.8,100.6L1175.7,99.6L1175.5,98L1175.4,96.8L1175.2,94.5L1174.9,92.9L1174.7,91.6L1174.5,90.4L1174.1,89L1173.9,87.6L1173.5,86.4L1172.9,84.4L1172.8,83.7L1173.1,84.2L1173.8,85.4L1174.3,87.2L1174.6,88.5L1174.9,89.4L1175.3,91.4L1175.7,92.1L1176,93.5L1176.2,95L1176.4,96.1L1176.3,96.8L1176.4,97.6ZM1046.3,162.6L1046.9,162.8L1047.7,163.1L1048.3,163L1048.6,162.6L1049.2,163.2L1049.3,163.6L1048.9,163.5L1049.4,164L1049.8,164.5L1049.8,164.7L1049.7,164.9L1049.4,164.9L1049.3,165.3L1048.8,165.4L1048.3,165.5L1047.2,165.3L1047.3,165.1L1047.9,164.9L1048.2,164.6L1047.6,164.1L1046.8,163.5L1046.3,162.8ZM1045.4,158.9L1044.9,157.9L1045.2,157.7L1044.8,157.1L1045.4,157.1L1045.8,157.6L1046,158.4L1045.5,158.3L1046,159ZM1133.5,138.9L1133.7,139.4L1134.2,139.9L1134.1,140.1L1133.6,140.6L1132.5,140.2L1132.9,139.5L1133.3,139.1ZM1078.9,27.4L1079.7,27.1L1079.6,27.5L1079.1,27.9L1078.7,27.9L1078.6,27.6ZM1129,84.2L1129.3,84.8L1129.5,85.8L1129.5,87.5L1129.8,88.2L1129.6,88.8L1129.3,89.2L1129,88.3L1128.7,88.6L1128.8,89.7L1128.6,90.3L1128.3,90.5L1128,91.7L1127.3,93.2L1126.5,95L1125.3,97.5L1124.5,99.3L1123.7,100.8L1122.7,101L1121.6,101.4L1120.9,100.9L1120,100.2L1119.8,99.4L1119.9,98.2L1119.6,97L1119.6,95.9L1119.9,95L1120.5,94.8L1120.6,94.3L1121.3,93.4L1121.5,92.5L1121.3,91.8L1121.2,90.9L1121.2,89.6L1121.7,88.9L1122,88L1122.6,88.1L1123.4,87.9L1123.9,87.8L1124.4,87.9L1125.2,87.2L1126.4,86.6L1126.8,86L1126.7,85.3L1127.2,85.6L1128,84.8L1128.1,84L1128.6,83.5ZM1097.3,30.1L1097.1,30.3L1095.5,30.4L1095.5,30.3L1094,30.2L1094.3,29.9L1094.9,30.1L1095.8,30.1L1096.7,30.1L1096.6,30.2ZM1070.8,26.1L1070.5,26.2L1069.4,26.6L1067.7,27.2L1066.8,27.5L1068.1,27L1068.4,26.8L1069.8,26.3L1070.6,26L1071.2,25.9L1071.6,25.8ZM1146.5,168.6L1146.5,168.6L1146.7,168.5L1147,168.2L1148.1,167.3L1148.5,167L1148.5,167ZM1154.1,161.8L1154.3,161.6L1155.1,160.8L1155.4,160.5L1155.4,160.5ZM1157.1,158.7L1157.4,158.4L1157.5,158.2L1157.5,158.2ZM1158.1,157.6L1158,157.7L1158.2,157.4L1158.4,157.2L1158.6,156.9L1158.6,156.9ZM1159.3,156.1L1159.3,156.1L1158.9,156.6L1159.5,155.8L1159.9,155.4L1160.7,154.4L1161.2,153.7L1161.3,153.6L1162.2,152.3L1162.5,151.9L1163.2,150.9L1163.7,150L1163.8,149.6L1163.8,149.2L1164.1,148.6L1164.1,148.6L1164,148.5L1163.9,148.3L1163.6,148.7L1163.3,148.9L1163.4,148.4L1163.5,148.1L1163.7,147.4L1163.7,147.1L1163.8,146.8L1163.4,147L1163.5,146.8L1163.3,146.8L1163,146.8L1163.1,146.4L1163.1,146L1163.7,144.7L1163.8,144.2L1164.3,143.6L1164.4,143.8L1164.6,143.6L1164.8,143.3L1165.4,142.6L1165.8,141.9L1166.6,140.5L1167,139.8L1167.4,139.2L1167.8,138.2L1168,137.9L1168.3,137.2L1168.8,136.2L1169.3,135L1169.6,134.4L1169.3,135.2L1169.9,133.9L1169.7,134.6L1169.5,135.2L1169.8,134.6L1170.3,133.4L1170.5,133L1170.6,132.5L1171,131.9L1171.1,131.7L1171.4,131.2L1171.7,130.5L1172.1,129.9L1171.7,130.9L1172.1,130.3L1172.3,130.5L1172.5,130.3L1172.7,130.3L1172.7,130.5L1172.6,130.9L1172.8,131L1172.8,131.2L1172.9,131.1L1172.9,131.1L1172.8,131.5L1172.8,131.9L1173,131.7L1173.2,131.2L1173.3,131L1173.5,130.6L1173.7,130L1173.9,129.4L1173.5,130.7L1173.5,130.8L1173.8,130L1173.9,129.6L1173.7,130.2L1173.8,129.8L1173.8,129.8L1172.9,132.5L1171.8,135.2L1170.7,137.8L1169.5,140.4L1168.2,142.9L1166.8,145.4L1165.3,147.9L1163.7,150.3L1162.1,152.6L1160.3,154.9ZM1163.9,72.9L1163.9,74.1L1163.6,74.2L1162.9,74L1162.4,72.7L1162.1,70.9L1162.2,69.3L1162.8,70.3L1163.3,71.4ZM1084.3,29L1085.2,28.8L1084.7,29.3L1084.8,29.5L1084.5,29.8L1083.7,29.7L1083.1,29.7L1081.7,29.5L1081.9,29.2L1083.2,29.1ZM1078.4,28.2L1079,28L1079.5,28.3L1079,29L1078.5,29L1078,29.3L1077.7,29.2L1077.9,28.6L1077.9,28.3ZM1085.9,22.9L1086,22.9L1085.3,23.1L1084.6,23.1L1084.6,23ZM1074.6,24.9L1074.5,24.9L1075.3,24.7L1076,24.5L1075.4,24.7L1074.2,25L1074.9,24.8L1074.9,24.8L1075,24.9L1075.4,24.8L1075.3,25L1075.3,25L1076.2,24.9L1075.8,25L1075.3,25.2L1075.4,25.3L1074.4,25.6L1073.3,25.8L1071.8,26.3L1071.5,26.3L1070.7,26.6L1070,26.8L1069.3,27L1069,27.1L1070.7,26.4L1071.5,26.2L1071.5,26.2L1070.4,26.5L1070.4,26.4L1071.4,26.1L1071.3,26L1071.8,25.8L1072.8,25.6L1072.8,25.6L1072.8,25.6L1073.3,25.4L1073.1,25.4L1073.1,25.4L1072.3,25.6L1072.3,25.5L1072.8,25.4L1072.8,25.4L1072.1,25.6L1072.7,25.4L1072.6,25.4L1072.9,25.3L1072.9,25.3ZM1079.7,171.9L1079.7,171.8L1079.6,171.5L1080,171.4L1080.7,171.5L1081.5,171.7L1082.1,171.9L1082.8,172.1L1083.1,172.5L1083.3,172.7L1083.5,173L1083.6,173.3L1083.4,173.6L1082.9,173.6L1082.3,173.4L1082.1,173.1L1081.6,172.9L1081.1,172.6L1080.6,172.4L1080.2,172.2ZM1082.1,174.9L1082.2,174.6L1082.3,174.4L1081.8,174.2L1081.3,174L1081.9,174L1082.6,174.2L1083.2,174.4L1083,174.5L1083.1,174.8L1082.6,174.9L1082.5,174.9ZM1070,174L1069.8,173.8L1069.8,173.5L1069.1,173.3L1068.6,173.2L1067.5,172.9L1066.8,172.6L1066.6,172.3L1067.1,172.3L1067.5,172.4L1068.1,172.4L1068.7,172.5L1069.3,172.6L1069.9,172.8L1070.4,173L1071,173.1L1071.2,173.4L1071.5,173.7L1071.5,174L1071,173.8L1071.2,174.1L1071.5,174.3L1071.2,174.4L1070.6,174.3ZM1075.8,179.7L1075.4,179.6L1075.2,179.4L1075,179.1L1074.8,178.9L1074.5,178.7L1075,178.6L1075.1,178.8L1075.4,179L1075.6,179.2L1076,179.4L1076.1,179.6ZM1083.7,182.3L1083.4,182.3L1083.1,182.2L1082.8,182L1082.3,181.9L1082.7,181.9L1083.2,182L1083.6,182.1ZM1085.2,182.8L1084.8,182.8L1084.6,182.6L1084.3,182.4L1084.5,182.5L1084.9,182.6ZM1098.5,182.1L1098.4,182.3L1097.9,182.2L1097.5,182.1L1097.3,182L1097.1,181.8L1097.6,181.7L1098,181.8L1098.3,182L1098.3,182ZM1099.2,178.7L1099.2,178.7L1099.4,179.1L1099,179L1099,179L1099.1,179.2L1099,179.2L1099,179.2L1098.6,179L1098.6,179.2L1098.6,179.3L1098.3,179.4L1098.1,179.3L1098,179.3L1097.6,179.1L1097.2,179L1096.9,178.8L1096.4,178.7L1096,178.9L1095.5,178.7L1095.3,178.6L1095,178.7L1094.6,178.8L1094.4,179.1L1094.9,179.2L1095.3,179.3L1095.4,179.5L1095.8,179.7L1095.8,179.9L1095.7,180.1L1095.6,180.3L1095.6,180.5L1095.9,180.7L1096.1,180.9L1096.4,181L1095.9,181L1095.4,181.1L1095.1,180.9L1094.7,181L1094.2,181.2L1094,181.3L1094,181.5L1094.3,181.7L1094.6,181.8L1095.1,181.9L1095.6,181.9L1096.1,182L1096.3,182.1L1096.7,182.3L1097,182.4L1097.2,182.9L1097,182.8L1096.7,182.7L1096.2,182.8L1095.7,182.8L1095.4,182.6L1094.9,182.7L1094.5,182.7L1094,182.8L1093.6,182.9L1093.1,182.9L1093,183.1L1093.1,183.2L1092.9,183.3L1092.4,183.4L1092.3,183.2L1091.7,183.2L1091.2,183.3L1090.7,183.2L1090.2,183.2L1089.6,183.2L1089.1,183.2L1088.6,183.2L1088.3,183.1L1088.1,183.1L1087.5,183L1087.1,182.8L1086.6,182.7L1086.1,182.7L1085.7,182.5L1085.3,182.4L1084.8,182.3L1084.3,182.1L1083.8,182L1083.4,181.8L1082.8,181.8L1082.3,181.7L1082.1,181.5L1081.6,181.4L1081,181.3L1081,181.2L1081.3,181.1L1081.4,180.9L1080.8,180.8L1080.9,180.6L1080.6,180.4L1080.6,180.2L1080.2,180.1L1079.7,179.9L1079.4,179.7L1079.2,179.5L1079.1,179.3L1078.5,179.2L1078.3,179.4L1078,179.5L1078.2,179.7L1078,179.8L1077.6,179.8L1076.9,179.9L1076.9,179.8L1076.6,179.6L1076.2,179.4L1076.1,179.2L1076.2,179L1076.5,178.9L1076.3,178.7L1075.9,178.5L1075.3,178.2L1075,178L1075.1,177.8L1074.7,177.6L1073.6,177.4L1074,177.3L1074.1,177.1L1073.8,176.8L1074.1,176.7L1074,176.5L1074,176.3L1074.2,176.1L1073.6,175.9L1073.1,175.7L1073.5,175.6L1073.2,175.3L1073.4,175.2L1073.8,175.1L1073.6,174.8L1073.2,174.6L1072.8,174.3L1072.6,174.1L1072.3,173.7L1072.1,173.4L1071.8,173.2L1071.3,172.9L1070.7,172.7L1070.2,172.6L1069.7,172.5L1069.1,172.5L1068.6,172.4L1068.2,172.3L1067.6,172.2L1067.1,172L1066.6,171.7L1066,171.5L1065.5,171.3L1064.9,171.1L1064.4,171L1063.8,170.6L1063.4,170.4L1062.9,170L1062.5,169.6L1062.1,169.3L1061.6,168.9L1061.2,168.6L1060.9,168.3L1060.8,168L1060.5,167.6L1060.2,167.3L1060.1,167L1059.8,166.6L1059.5,166.2L1059.4,165.9L1059.8,165.9L1060.2,166.2L1060.5,166.7L1060.7,167L1060.5,167.1L1060.5,167.4L1060.8,167.7L1061.1,168.1L1061.5,168.4L1062,168.7L1062.5,168.8L1062.9,168.9L1063.2,169.2L1063.3,169.5L1063.7,169.8L1064.2,170.1L1064.7,170.5L1065.2,170.7L1065.8,170.8L1066.2,170.8L1066.5,170.7L1066.9,170.7L1067.5,170.8L1068,170.9L1068.5,171L1069,171L1069.5,171.1L1070.7,171.5L1071.2,171.6L1071.8,171.7L1072.3,171.8L1073,172.1L1073.6,172.3L1074,172.6L1074.2,172.9L1074.7,173.1L1075.1,173.3L1075.7,173.7L1075.9,174L1076.2,174.2L1076.5,174.5L1077.1,174.7L1077.3,175L1077.3,175.3L1077.5,175.5L1077.6,175.8L1078.1,175.8L1078.3,175.6L1078.6,175.5L1079,175.4L1079.5,175.6L1079.5,175.9L1079.9,176.1L1080.5,176.1L1081,176.2L1081.4,176L1081.9,176.1L1082.4,175.9L1082.5,175.7L1082.8,175.5L1083.2,175.4L1083.6,175.3L1083.8,175L1084.2,174.8L1084.7,174.7L1085.2,174.6L1085.8,174.7L1086.4,174.7L1085.9,174.5L1085.5,174.3L1085.2,174L1084.9,173.8L1084.6,173.5L1084.7,173.3L1085.1,173.1L1085.5,173L1085,172.8L1084.7,172.5L1085,172.2L1084.9,172L1084.8,171.7L1084.9,171.4L1085,171.1L1084.9,170.8L1084.4,170.6L1083.9,170.5L1083.5,170.2L1083.3,170.5L1083.2,170.8L1082.9,171L1082.4,170.8L1081.5,170.4L1081.3,170.2L1081.2,169.9L1081.2,169.5L1081.1,169.2L1081,168.8L1080.7,168.4L1080.8,168.1L1080.9,167.9L1081,167.7L1081.3,167.5L1081.4,167.2L1081.5,166.9L1081.6,166.6L1081.7,166.3L1081.7,165.8L1081.7,165.5L1081.7,165.1L1081.4,164.7L1080.9,164.7L1080.6,164.3L1080.5,163.9L1080.7,163.6L1080.8,163.3L1080.9,162.9L1080.9,162.4L1080.7,161.9L1080.7,161.6L1081.2,161.5L1081.6,161.7L1082.1,161.6L1081.9,161.2L1081.8,160.8L1082.3,160.8L1082.6,161.1L1083.1,161L1083.6,160.7L1084,160.5L1084.5,160.4L1084.9,160.8L1085.2,160.4L1085.5,160.1L1085.9,159.8L1086.3,159.6L1086.7,159.3L1087.1,159L1087.4,158.8L1087.5,158.3L1088,158.6L1088.4,158.3L1088.9,158.8L1089.3,159.1L1089.8,158.9L1089.9,158.4L1090.3,158.1L1090.9,158.1L1091.2,158.5L1091.5,158L1092,157.9L1092.6,157.8L1093.1,157.8L1093.6,157.9L1094.2,157.9L1094.4,158.3L1094.8,158.6L1095.3,158.4L1095.8,158.3L1096.4,158.3L1096.9,158.3L1097.4,158.2L1097.9,158.1L1098.4,157.8L1098.9,157.6L1099.4,157.6L1099.8,157.3L1100.2,156.7L1100.5,156.4L1101,156.6L1101.2,157L1101.5,157.3L1102.1,157.2L1102.3,157.7L1102.6,158L1103.2,157.8L1103.5,157.3L1104,157.2L1104.6,156.9L1105.2,156.8L1105.8,156.7L1106.3,156.6L1106.9,156.4L1107.4,156.2L1107.8,156.4L1108.4,156.2L1108.9,155.9L1109.3,156.1L1109.9,155.9L1110.2,155.6L1110.8,155.4L1111.3,155.3L1111.9,155.2L1112.5,155.3L1112.9,155.4L1113.3,155.7L1113.5,156.1L1113.2,156.6L1113.4,157L1113.5,157.4L1114,157.7L1114,158.1L1114.2,158.5L1114.6,158.7L1115.1,158.6L1115.8,158.4L1116,158.7L1116.3,159L1116.6,159.3L1116.9,159.5L1117.3,159.7L1116.6,160.8L1116.4,161L1115.9,161.4L1115.3,161.5L1114.7,161.7L1114.4,162.1L1114.8,162.2L1114.4,162.5L1113.9,162.8L1113.3,163.1L1113.3,163.5L1113.6,163.7L1114.1,163.8L1114.6,163.5L1115.1,163.2L1115.6,163.1L1116.1,162.9L1116.5,162.7L1117.2,162.3L1117.5,162.4L1117.9,162.5L1118.3,162.6L1118.8,162.7L1119.4,162.5L1119.9,162.2L1120.5,162L1121.1,162L1121.5,162L1122.1,161.9L1122.4,161.9L1122.8,161.9L1123,162.2L1123.4,162.3L1123.8,162.5L1124,162.8L1124.5,162.7L1125.4,162.3L1125.2,162.6L1124.8,163.1L1124.7,163.5L1124.9,163.8L1125.2,163.9L1125.4,164.2L1125.5,164.5L1125.8,164.6L1125.9,164.8L1125.7,165.1L1126.1,165.3L1126.3,165.6L1126.6,165.7L1126.6,166.1L1127.1,166L1127.6,165.9L1128,165.9L1129.1,165.8L1129,166.1L1128.8,166.5L1128.4,166.9L1127.7,167.6L1127.8,167.8L1127.9,168.1L1128.1,168.3L1128.3,168.5L1128.7,168.6L1129.1,168.6L1129.2,168.9L1129.5,169L1129.3,169.3L1128.8,169.7L1128.4,170L1128.5,170.3L1128.1,170.6L1127.8,171L1127.6,171.4L1127.6,171.7L1128,171.7L1128.4,171.8L1128.4,172L1128.1,172.3L1127.9,172.6L1128,172.8L1127.9,173.1L1127.7,173.3L1127.4,173.6L1127.5,173.8L1127.6,174L1127.5,174.3L1127.3,174.6L1127.2,174.8L1127.2,175L1127.7,174.9L1128.2,174.8L1127.7,175.1L1127.2,175.3L1126.6,175.5L1126.1,175.6L1125.7,175.9L1125.5,176.2L1125.3,176.5L1125.1,176.7L1124.8,177L1124.6,177.3L1124.2,177.6L1123.8,177.9L1123.2,178.1L1122.8,178.1L1122.3,178.3L1121.8,178.5L1121.1,178.8L1120.6,179.1L1120,179.4L1119.5,179.6L1119.1,179.8L1119.3,179.9L1118.7,180.1L1118.1,180.3L1117.6,180.4L1117.1,180.7L1116.6,180.9L1116,180.9L1115.4,181.1L1114.8,181.2L1114.3,181.4L1113.9,181.6L1113.5,181.7L1113,181.9L1112.5,182.1L1112,182.2L1111.4,182.3L1110.9,182.4L1110.4,182.5L1110.1,182.4L1110.1,182.3L1109.9,182.1L1109.7,182L1109.5,181.9L1109.8,181.7L1109.7,181.6L1109.9,181.4L1109.7,181.3L1109.6,181.1L1109.5,181L1109.2,180.8L1109,180.7L1108.6,180.6L1108.2,180.6L1107.7,180.5L1107.3,180.5L1106.9,180.4L1106.4,180.5L1105.9,180.5L1106.1,180.3L1106.3,180.1L1106.6,179.9L1106.2,179.7L1105.8,179.5L1105.5,179.4L1105.2,179.2L1104.6,179.2L1104.2,179.1L1103.7,179.1L1103.2,179L1102.7,179L1102.2,179L1101.6,179L1101.2,178.8L1100.6,178.8L1100.5,178.8L1100.2,178.7L1100.1,178.9L1099.6,178.8ZM1104.8,30.5L1104.9,30.5L1105,30.4L1105.9,30.4L1106.9,30.3L1106.1,30.5L1106.2,30.7L1106.3,30.7L1105.1,30.9L1104.6,30.8L1104.3,30.5Z" fill="#e2ddd1"/>
<path d="M1084.9,103.9L1085.5,103.1L1086,103.5L1086.2,104.1L1086.8,104.1L1087.6,104.3L1088.3,104.2L1089.3,103.4L1089.1,98.1L1089.5,98.3L1090.3,99.7L1090.2,100.5L1090.5,101L1091.4,100.9L1092,100.2L1092.6,99.8L1092.9,99.1L1093.6,98.7L1094.1,98.9L1094.7,99.3L1095.8,99.3L1096.6,99L1096.7,98.6L1097,97.9L1097.7,97.8L1098.1,97.3L1098.5,96.3L1099.7,95.3L1101.6,94.3L1102.2,94.3L1102.8,94.6L1103.2,94.4L1103.9,94.6L1104.5,96.6L1104.8,97.7L1104.5,99.2L1104.5,99.8L1103.9,99.5L1103.5,99.6L1103.4,100L1103,100.5L1103,101L1103.7,101.8L1104.5,101.7L1104.8,101.1L1105.7,101.1L1105.4,102.1L1105.1,103.3L1104.8,103.9L1103.9,104.6L1103.6,104.8L1103.1,105.5L1102.7,106.2L1101.9,107.2L1100.5,108.6L1099.6,109.5L1098.7,110.1L1097.5,110.6L1096.9,110.7L1096.7,111.1L1096,110.9L1095.4,111.2L1094.1,110.9L1093.4,111.1L1092.9,111L1091.7,111.6L1090.7,111.9L1090,112.5L1089.5,112.5L1088.9,112L1088.5,112L1088,111.4L1087.9,111.6L1087.8,111.2L1087.7,110.4L1087.3,109.5L1087.6,109.2L1087.5,108.1L1086.6,106.8L1086,105.6L1085.9,105.6ZM1100.7,104.1L1100.2,103.6L1099.6,103.9L1098.9,104.4L1098.2,105.3L1099.1,106.4L1099.6,106.3L1099.8,105.8L1100.5,105.6L1100.8,105.2L1101.2,104.5Z" fill="#1f7a6a"/>
<path d="M1104.2,25.1L1104.4,25L1105.1,25.2L1105.4,25.2L1105.6,25.3L1105.8,25.3L1105.8,25.3L1106.3,25.5L1107.3,25.5L1107.2,25.7L1106.1,25.6L1104.9,25.8L1104.3,25.6L1104.4,25.5L1103.3,25.3L1103.4,25.2L1104.3,25.2Z" fill="#e2ddd1" opacity="0.6"/>
<path d="M1096,186L1093.1,186L1090.3,185.8L1087.4,185.6L1084.6,185.2L1081.8,184.8L1079,184.2L1076.2,183.6L1073.4,182.8L1070.7,182L1068,181.1L1065.3,180L1062.6,178.9L1060.1,177.7L1057.5,176.4L1055,175L1052.5,173.5L1050.1,172L1047.8,170.3L1045.5,168.6L1043.3,166.8L1041.1,164.9L1039,163L1037,161L1035.1,158.9L1033.2,156.7L1031.4,154.5L1029.7,152.2L1028,149.9L1026.5,147.5L1025,145L1023.6,142.5L1022.3,139.9L1021.1,137.4L1020,134.7L1018.9,132L1018,129.3L1017.2,126.6L1016.4,123.8L1015.8,121L1015.2,118.2L1014.8,115.4L1014.4,112.6L1014.2,109.7L1014,106.9L1014,104L1014,101.1L1014.2,98.3L1014.4,95.4L1014.8,92.6L1015.2,89.8L1015.8,87L1016.4,84.2L1017.2,81.4L1018,78.7L1018.9,76L1020,73.3L1021.1,70.6L1022.3,68.1L1023.6,65.5L1025,63L1026.5,60.5L1028,58.1L1029.7,55.8L1031.4,53.5L1033.2,51.3L1035.1,49.1L1037,47L1039,45L1041.1,43.1L1043.3,41.2L1045.5,39.4L1047.8,37.7L1050.1,36L1052.5,34.5L1055,33L1057.5,31.6L1060.1,30.3L1062.6,29.1L1065.3,28L1068,26.9L1070.7,26L1073.4,25.2L1076.2,24.4L1079,23.8L1081.8,23.2L1084.6,22.8L1087.4,22.4L1090.3,22.2L1093.1,22L1096,22L1098.9,22L1101.7,22.2L1104.6,22.4L1107.4,22.8L1110.2,23.2L1113,23.8L1115.8,24.4L1118.6,25.2L1121.3,26L1124,26.9L1126.7,28L1129.4,29.1L1131.9,30.3L1134.5,31.6L1137,33L1139.5,34.5L1141.9,36L1144.2,37.7L1146.5,39.4L1148.7,41.2L1150.9,43.1L1153,45L1155,47L1156.9,49.1L1158.8,51.3L1160.6,53.5L1162.3,55.8L1164,58.1L1165.5,60.5L1167,63L1168.4,65.5L1169.7,68.1L1170.9,70.6L1172,73.3L1173.1,76L1174,78.7L1174.8,81.4L1175.6,84.2L1176.2,87L1176.8,89.8L1177.2,92.6L1177.6,95.4L1177.8,98.3L1178,101.1L1178,104L1178,106.9L1177.8,109.7L1177.6,112.6L1177.2,115.4L1176.8,118.2L1176.2,121L1175.6,123.8L1174.8,126.6L1174,129.3L1173.1,132L1172,134.7L1170.9,137.4L1169.7,139.9L1168.4,142.5L1167,145L1165.5,147.5L1164,149.9L1162.3,152.2L1160.6,154.5L1158.8,156.7L1156.9,158.9L1155,161L1153,163L1150.9,164.9L1148.7,166.8L1146.5,168.6L1144.2,170.3L1141.9,172L1139.5,173.5L1137,175L1134.5,176.4L1131.9,177.7L1129.4,178.9L1126.7,180L1124,181.1L1121.3,182L1118.6,182.8L1115.8,183.6L1113,184.2L1110.2,184.8L1107.4,185.2L1104.6,185.6L1101.7,185.8L1098.9,186L1096,186Z" fill="none" stroke="#9fb3c4" stroke-width="2"/>
</svg>
